<svg width="200" height="200" fill="none" xmlns="http://www.w3.org/2000/svg"><path d="M84.823 73.746h3.805V88.26h-3.805V73.746zM140.495 82.073v6.132l-3.828-.014V73.3l6.894 5.934v-5.486h3.796v15.049l-6.862-6.723zM65.687 80.964a7.465 7.465 0 017.462-7.462c1.857 0 3.556.683 4.863 1.805l-2.466 2.799a3.733 3.733 0 00-6.128 2.858 3.733 3.733 0 003.731 3.731c.928 0 1.778-.342 2.434-.905l2.461 2.803a7.417 7.417 0 01-4.895 1.829 7.461 7.461 0 01-7.462-7.458z" fill="#D9D9D9"/><path d="M95.873 91.58l-7.199-19.127h-6.017v15.862h-3.939V72.454H70l2.022-3.81h19.464l4.387 11.462 4.392-11.461h18.845l2.078 3.81h-18.111L95.873 91.58z" fill="#D9D9D9"/><path d="M108.036 88.204V85h2.614c.425 0 1.233-.032 1.436-.707.42-1.404-3.883-3.68-3.883-7.171 0-2.641 1.911-3.431 3.209-3.431h3.962v3.15h-2.447s-.702 0-.896.28c-1.062 1.52 3.934 3.741 3.934 7.823 0 2.134-1.829 3.26-3.653 3.26h-4.276zM103.132 73.69h3.81v14.514h-3.81V73.691zM116.584 73.69h3.809v14.514h-3.809V73.691zM62.796 88.26l-1.011-2.701h-4.724L56.05 88.26H52L59.425 67l7.426 21.26h-4.055zm-4.58-6.58h2.248l-1.126-3.713-1.123 3.713zM121.086 80.96a7.475 7.475 0 117.477 7.476 7.477 7.477 0 01-7.477-7.476zm3.764 0a3.713 3.713 0 003.713 3.712 3.711 3.711 0 10-3.713-3.713zM68.308 90.386c.33.207.658.417.984.63.801.017 1.603.028 2.405.036 1.248.545 2.248 1.458 3.053 2.543.052 1.313-.093 2.618-.268 3.916l.647.835c-.061.604-.15 1.206-.32 1.791-.162 2.416-.038 4.839-.078 7.258l.717.709c.3 2.576.14 5.193-.196 7.757-.407 1.539.184 3.075.213 4.619-.245.417-.752.789-.597 1.333.14.968-.08 1.93-.256 2.877-.21 1.49-.69 3.037-.233 4.525 1.417.244 3 .381 4.041-.833 1.276.453 2.626.562 3.972.497.377-.234.754-.465 1.133-.696 3.765-.414 7.552-.051 11.327-.19.307 1.843-.345 3.867.641 5.557-1.996-.044-4.067.192-5.95-.63l-.596-.266c-1.286-.275-2.607-.193-3.91-.272-2.86-.784-5.864-.194-8.774-.495-1.013-.297-2.04-.553-3.102-.559-.73.622-1.482 1.219-2.215 1.837-1.16.004-2.32.006-3.48.004.166-.305.335-.608.504-.91.702-.43 1.377-.899 2.06-1.357.49-2.272-.331-4.6.51-6.821.116-.421.228-.843.335-1.265a595.15 595.15 0 01-.801-.774c-.003-1.333-.03-2.668.079-3.997.438-1.221.123-2.56.567-3.78.076-1.289.003-2.596.305-3.862.202-.658-.094-1.308-.168-1.959-.268-1.749.254-3.575-.348-5.278a45.622 45.622 0 01-.095-2.442l.75-.644c.072-1.038.069-2.085-.192-3.099.719-1.285.396-2.72-.345-3.916l-.711-.03a25.69 25.69 0 00-1.612-1.639l.004-1.01zM98.014 91.106c3.35-.033 6.699.057 10.048.02.76-.038 1.5.145 2.216.386-.441.986-.893 1.972-1.486 2.879-.016.45-.028.9-.039 1.35-.357.408-.711.817-1.067 1.224l-.002 1.306-.654.643c-.133.956-.334 1.901-.536 2.844-.889 1.81-.227 3.905-.846 5.787-.254 1.287-1.219 2.397-1.085 3.752-.377.635-.826 1.235-1.105 1.923-.273 1.637.224 3.358-.341 4.952-.826 2.042-.326 4.43-1.76 6.262-.238.84-.547 1.657-.893 2.458.963-.048 1.937-.071 2.882-.286.451-.568.633-1.441 1.42-1.653 1.444-.599 2.915-1.223 4.066-2.317.831.155 1.824-.029 2.462.641a6.867 6.867 0 01-.305 1.244c.245 1.504.428 3.044.224 4.565l-.449.446c-1.696.118-3.43.181-5.107-.154-.552-.133-1.103-.26-1.654-.392-.389.321-.78.64-1.168.961-1.667-.103-3.355-.04-4.872.732-.632-.906-.302-2.152-.055-3.149.047-.339.092-.678.136-1.016l.62-.642c.292-2.128 1.017-4.219.753-6.395-.98-1.203-.683-2.801-.692-4.231.02-2.261 1.244-4.247 1.925-6.344.355-.918.1-1.93.408-2.861.28-1.397 1.193-2.593 1.282-4.033.196-2.55 2.513-4.26 2.792-6.786l-.694-.276c-.812.075-1.604-.068-2.262-.573-.699.116-1.587.104-1.919.867-.687 1.42-.734 3.041-1.2 4.535-.5.159-.996.324-1.49.491.014-.69.019-1.38.01-2.068.869-2.258.258-4.737.438-7.092z" fill="#D9D9D9"/><path d="M75.694 91.676c2.395-.109 4.794-.032 7.192-.054l.39.828c-.89.407-1.712.974-2.127 1.894.621 1.432-.18 2.952.016 4.442.174 3.181-.36 6.429.427 9.554l-.636.763c.052 1.461.216 2.914.335 4.371.12.721-.47 1.259-.773 1.851.301 1.295.564 2.605 1.032 3.855-.14 1.526-1.1 3.025-.401 4.546.737.42 1.457.872 2.183 1.314v.985a36.359 36.359 0 00-5.25.008c-.43.289-.862.573-1.3.848-.138-1.092.853-1.688 1.506-2.362-.076-2.24.663-4.463.252-6.683.909-2.679.316-5.539.33-8.302.038-2.663-.103-5.331.106-7.988-.525-2.647-.232-5.378-.679-8.043-.915-.538-1.81-1.118-2.603-1.827z" fill="#D9D9D9"/><path fill-rule="evenodd" clip-rule="evenodd" d="M126.55 91.456c-1.4-.396-2.8-.791-4.275-.717-1.555.203-3.125.205-4.689.152 1.307.811 2.683 1.697 3.252 3.206.783-.434 1.619-.227 2.401.077-.719.764-1.522 1.435-2.325 2.106-.445.372-.891.745-1.322 1.133-.072 1.413.094 2.81.701 4.099.171 1.014.284 2.039.397 3.064.197 1.791.395 3.581.903 5.317.185 2.019.131 4.047.078 6.077-.04 1.497-.08 2.994-.024 4.488l.668.687c-.173 1.047-.537 2.04-.902 3.033-.395 1.077-.79 2.154-.942 3.301 2.037 1.274 3.977 2.948 4.643 5.357.355-1.775.671-3.586.472-5.402-.108-.893-.061-1.787-.014-2.681.054-1.044.109-2.087-.083-3.125.057-1.643-.148-3.273-.354-4.904-.153-1.217-.307-2.434-.352-3.657-.098-.914.213-1.765.523-2.613.136-.372.272-.743.373-1.119.819.884 1.451 1.912 2.064 2.944.001.332-.017.666-.035.999-.033.619-.067 1.239.022 1.849a16.56 16.56 0 011.35 3.937c.513 2.285.604 4.664.193 6.973-.186.779-.462 1.53-.738 2.282a30.727 30.727 0 00-.531 1.53c1.333-.136 2.279.606 3.236 1.357.655.514 1.316 1.032 2.11 1.278.084-.863.25-1.716.415-2.567.25-1.294.501-2.587.468-3.911-.011-.342.002-.692.014-1.043.035-.976.07-1.966-.393-2.845-.349-.679-.337-1.427-.324-2.177.008-.507.017-1.015-.086-1.505-.039-.74-.353-1.398-.666-2.055-.339-.709-.677-1.417-.667-2.228-.006-1.813-.17-3.687-1.247-5.216-.497-.518-.992-1.038-1.482-1.561l-1.283.006v-1.304c2.065-.068 3.149-1.922 3.935-3.569.055-.725.105-1.451.136-2.177l.012-.041c.343-1.148.724-2.423.216-3.583l-.148-.357c-.732-1.776-1.563-3.795-3.578-4.358-.714-.14-1.418-.338-2.122-.537zm1.185 6.098c-.784-1.012-1.598-2.064-2.827-2.54-.053 2.955-.04 5.911-.026 8.866l.007 1.839.271-.061c.742-.163 1.544-.34 1.997-1.005.537-.809.749-1.746.96-2.683.114-.504.227-1.008.392-1.492a15.227 15.227 0 01-.017-.484c-.018-.759-.036-1.54-.537-2.157a27.06 27.06 0 01-.22-.283z" fill="#D9D9D9"/><path d="M85.117 95.594c-.002-1.39-.168-2.845.445-4.145 3.298-.026 6.59.17 9.889.142.046 1.574.463 3.112.428 4.69-.04 1.821.282 3.778-.769 5.395l.34.721c-1.233 1.73-2.075 3.786-2.161 5.924-.594.416-1.231.8-1.691 1.373-.248.51-.088 1.103-.122 1.649a13.91 13.91 0 00-2.954 6.398c-.235 1.21-.695 2.362-1.179 3.491l-.162.586a27.12 27.12 0 00-.764 2.176c1.434-.396 2.864-.843 4.24-1.405.941-1.115 1.634-2.5 3.013-3.166l.532-1.06.832.157c.372-.762.71-1.594 1.464-2.063.085.665.16 1.333.24 1.999-1.432 1.952-.721 4.446-.868 6.681-1.716.866-3.676.6-5.493.285-.669-.095-1.217.6-1.893.455-1.203-.211-2.425-.216-3.637-.328.112-1.019.277-2.033.317-3.059l.524-.709-.617-1.593c-.62-2.29.031-4.6.74-6.785.298-.834.83-1.552 1.324-2.277.266-1.078.837-2.036 1.537-2.887.029-.326.059-.652.09-.977.348-1.073.69-2.151 1.126-3.193.796-.734 1.526-1.557 2.084-2.487.055-.67-.016-1.343-.034-2.013.95-1.068 1.821-2.202 2.675-3.347-.03-.817-.048-1.634-.063-2.451-1.407 0-2.815.004-4.222-.005-1.008.615-1.91 1.42-2.15 2.631-.43.315-.859.632-1.285.952-.017 1.47.312 3.065-.567 4.372-.851-1.658-1.045-3.539-.431-5.309-.26-.273-.52-.545-.778-.818z" fill="#D9D9D9"/><path fill-rule="evenodd" clip-rule="evenodd" d="M134.675 90.259a37.5 37.5 0 00-2.712-.466c.978 1.22 2.151 2.257 3.318 3.291l.011.01-.001.02c-.029.61-.059 1.218-.099 1.826-.775 2.376-.748 4.874-.722 7.354.008.752.016 1.504.002 2.249.134.734.15 1.477.166 2.219.017.784.034 1.567.19 2.335.029.424.039.85.048 1.276.02.883.04 1.766.238 2.632.203 1.642.776 3.208 1.564 4.657.111 1.135-.024 2.255-.16 3.375-.101.832-.201 1.664-.201 2.502-.028 1.31.678 2.459 1.342 3.54l.099.162c-.48.247-.963.488-1.448.725.294 1.683.176 3.428-.812 4.876.163-.048.326-.1.49-.153.73-.232 1.471-.469 2.243-.427 1.029.15 2.019-.159 2.994-.462.199-.062.398-.124.596-.182 1.082-.237 1.815-1.182 2.218-2.158.709-1.901.884-3.937.991-5.945.318-1.668.288-3.361.259-5.053-.034-1.967-.068-3.933.444-5.853 1.043-1.028 1.044-2.459 1.045-3.822l.001-.407c.878-1.644.568-3.6.283-5.397-.031-.2-.063-.398-.092-.594-.266-.856-.25-1.759-.235-2.658.021-1.215.042-2.422-.63-3.495-.537-1.212-1.515-2.12-2.469-3.006l-.132-.123c-.545-.066-1.088-.133-1.629-.207-.749-.07-1.494-.185-2.211-.41a105.79 105.79 0 00-.472-.14 81.598 81.598 0 01-.939-.282l-.597-.156a30.642 30.642 0 00-1.331-.73c-.558-.293-1.116-.587-1.65-.923zm6.026 9.635a465.63 465.63 0 01-2.344-.289c-.265 1.278-.139 2.564-.012 3.852.082.829.164 1.659.141 2.488-.031.945.199 1.851.429 2.757.217.854.434 1.708.432 2.594.004 1.721-.001 3.441-.007 5.161-.011 3.37-.022 6.739.039 10.107 1.012-1.136 1.388-2.546 1.766-3.961.218-.814.436-1.63.776-2.397.215-1.263.183-2.574.151-3.885-.052-2.155-.104-4.31.939-6.254.198-.77.454-1.524.806-2.238.112-1.501.119-3.051-.47-4.464-.286-1.237-1.206-2.105-2.1-2.948a30.811 30.811 0 01-.546-.523zM114.427 91.263c-.351-.245-1.398-.83-1.306.037.107.952-.336 1.713-1.066 2.288.025 1.247-.538 2.315-1.103 3.388-.331.626-.662 1.253-.877 1.919l.083.703c-1.068 1.421-1.429 3.19-1.454 4.935l-.387.488c-.207 1.163-.623 2.271-1.173 3.314a50.34 50.34 0 01-.083 1.901l.367.517c-.632 1.905-.8 3.897-.963 5.884.132.204.265.408.4.613-.45.325-.898.652-1.343.982l.012 1.134c-.47.495-.934.996-1.389 1.504.143.417.285.836.426 1.256a78.556 78.556 0 013.195-1.196l.711-.256.564.036c.569.036 1.138.071 1.706.117l.838-.764-.522-.479c-.263-.241-.527-.482-.788-.724.015-.911-.025-1.821-.064-2.73l-.015-.327c1.783.877 3.554 1.817 5.108 3.068-.282 2.169-1.291 4.122-2.496 5.915.194.274.404.537.615.801.403.503.806 1.006 1.089 1.584.08.872.31 1.715.539 2.557.331 1.215.661 2.427.537 3.712l.705.403c.339-1.195.61-2.419.64-3.665l.309-.53c.201-.704.413-1.404.63-2.103-.053-1.353.467-2.573.987-3.795.475-1.113.95-2.228.993-3.448l.009-.592c.042-2.712.084-5.442-.486-8.109-.185-.752-.195-1.52-.205-2.288-.009-.685-.017-1.37-.151-2.043-.167-.633-.33-1.268-.494-1.902-.748-2.898-1.495-5.795-2.53-8.61.161-1.106-.299-2.028-.761-2.955-.4-.802-.802-1.608-.807-2.54zm.456 15.302c-.897-.324-1.67-.885-2.155-1.716-.021 1.127-.561 2.117-1.141 3.047-.386 1.768-.526 3.572-.303 5.374 1.538-.116 2.887.601 4.112 1.443.37-2.718.247-5.504-.513-8.148zM55.138 91.455c-.87.102-1.74.205-2.618.202l-.52.75.215.877a237.16 237.16 0 011.548 1.56l1.026.022a29.996 29.996 0 01-.407 1.681c-.085 1.696-.078 3.395-.07 5.093.003.721.006 1.443.002 2.164-.02.476.071.956.161 1.434.155.819.31 1.633-.093 2.418-.174 1.223-.006 2.434.162 3.644.067.484.134.969.18 1.454-.237.21-.473.421-.709.633a63.27 63.27 0 01-.035 2.628c-.043 1.554-.085 3.109.076 4.657.347 2.204.3 4.439.253 6.665-.008.409-.017.819-.023 1.227-.033.209-.06.425-.09.646-.185 1.417-.391 2.999-1.844 3.612 1.093.462 2.276.407 3.453.352.558-.027 1.115-.053 1.662-.024.352-.279.706-.558 1.063-.831l.547.768c.401-.202.802-.404 1.202-.608l1.22-.05c.98-1.1 2.224-1.865 3.464-2.628.261-.16.522-.32.78-.483-.123-1.443.563-2.705 1.266-3.901.668-1.122.602-2.428.538-3.689-.01-.207-.02-.412-.027-.615.652-1.47.543-3.037.435-4.607-.059-.847-.118-1.694-.057-2.527-1.034-1.155-.915-2.629-.8-4.056.024-.3.047-.598.06-.89-.218-.39-.534-.704-.848-1.017-.151-.151-.302-.301-.442-.459.04-.344.12-.68.198-1.016.037-.16.074-.319.107-.479-.101-.036-.205-.07-.31-.105-.655-.218-1.335-.444-1.67-1.104 1.343-1.229 2.202-2.844 3.045-4.429l.047-.088c.522-.881.916-1.931.356-2.904a43.075 43.075 0 01-.093-2.372c-.117-.2-.227-.415-.338-.632-.388-.76-.79-1.548-1.619-1.871-.757-.292-1.498-.642-2.05-1.258-1.25-.04-2.5-.04-3.75-.04-.634 0-1.268 0-1.901-.006-.924-.014-1.838.094-2.752.202zm6.679 4.528a91.15 91.15 0 01-1.747-.225l-.155.617c-.308 1.489-.269 3.006-.23 4.523.022.85.044 1.699.005 2.544l1.037-.002c.486-.963 1.179-1.813 2.2-2.234-.01-.483.04-.966.092-1.449.086-.814.172-1.627-.04-2.432l.468-.505A37.868 37.868 0 0161.96 96l-.143-.017zm.706 13.998a27.2 27.2 0 01-2.834-2.363c.005.838-.005 1.677-.016 2.515a103.416 103.416 0 00-.005 3.365c.016.686-.21 1.335-.433 1.975l-.09.257c.407 2.385.21 4.771.014 7.159-.137 1.669-.275 3.34-.207 5.011l-.556 1.307c1.297-.588 2.614-1.297 3.479-2.467.607-.699.664-1.587.72-2.474.03-.459.06-.919.165-1.352l.304-.966.015-.055c.363-1.173.173-2.373-.015-3.559-.05-.321-.101-.641-.14-.96.547-.668.233-1.385-.063-2.06-.054-.124-.107-.245-.155-.365.464-1.633.323-3.364-.183-4.968z" fill="#D9D9D9"/></svg>