<svg width="200" height="200" fill="none" xmlns="http://www.w3.org/2000/svg"><path d="M59.716 110.352v-26.97h15.94v3.38h-12.64v8.293h11.352v3.381H63.017v8.454h13.525v3.381H59.716v.081zM93.288 110.352l-5.475-7.165-5.475 7.165h-3.864l7.487-9.58-7.89-9.903h4.348l5.394 7.407 5.475-7.407h4.267l-7.488 9.903 7.085 9.58h-3.864zM102.466 107.453v13.284h-3.301v-19.886c0-5.072 3.864-10.466 9.902-10.466 6.119 0 10.708 3.865 10.708 10.225 0 6.199-4.67 10.466-9.983 10.466-2.576 0-6.038-1.127-7.326-3.623zm13.847-6.843c0-4.348-2.818-6.924-7.809-6.682-2.415.08-6.119 1.851-5.797 8.05.081 2.013 2.174 5.797 6.763 5.797 3.945 0 6.843-2.254 6.843-7.165zM122.593 110.352V90.869h3.3v2.093c1.611-1.852 4.106-2.496 6.763-2.496v3.543c-.402-.08-4.347-.564-6.763 4.589v11.834h-3.3v-.08zM133.542 100.61c0-5.636 4.025-10.225 9.58-10.225 6.924 0 9.5 4.59 9.5 10.466v1.61h-15.457c.241 3.704 3.542 5.636 6.602 5.556 2.254-.081 3.783-.725 5.394-2.335l2.173 2.254c-2.012 1.932-4.589 3.22-7.728 3.22-5.878-.08-10.064-4.428-10.064-10.546zm9.339-6.924c-3.14 0-5.555 2.737-5.716 5.716h11.996c0-2.898-2.094-5.716-6.28-5.716zM154.313 107.615l2.415-2.174c-.08 0 1.208 1.288 1.369 1.369.563.483 1.127.805 1.851.966 2.094.564 5.878.403 6.2-2.496.161-1.61-1.047-2.496-2.416-3.059-1.771-.644-3.703-.886-5.474-1.691-2.013-.885-3.301-2.415-3.301-4.67 0-5.876 8.373-6.842 12.157-4.105.161.16 2.012 1.852 1.932 1.852l-2.415 1.932c-1.208-1.45-2.335-2.174-4.911-2.174-1.288 0-3.06.564-3.382 1.932-.483 1.932 1.691 2.657 3.14 3.06 1.932.483 4.026.805 5.716 1.851 2.335 1.449 2.898 4.589 2.013 7.004-.966 2.657-3.865 3.704-6.441 3.784-3.059.161-5.716-.805-7.89-2.979-.161 0-.563-.402-.563-.402zM171.3 107.615l2.416-2.174c-.081 0 1.207 1.288 1.368 1.369.564.483 1.127.805 1.852.966 2.093.564 5.877.403 6.199-2.496.161-1.61-1.047-2.496-2.415-3.059-1.771-.644-3.704-.886-5.475-1.691-2.013-.885-3.301-2.415-3.301-4.67 0-5.876 8.373-6.842 12.157-4.105.161.16 2.013 1.852 1.932 1.852l-2.415 1.932c-1.208-1.45-2.335-2.174-4.911-2.174-1.288 0-3.059.564-3.381 1.932-.483 1.932 1.69 2.657 3.14 3.06 1.932.483 4.025.805 5.716 1.851 2.334 1.449 2.898 4.589 2.012 7.004-.966 2.657-3.864 3.704-6.44 3.784-3.06.161-5.716-.805-7.89-2.979-.161 0-.564-.402-.564-.402zM186.999 90.869v-2.093h-.724v-.403h1.932v.403h-.724v2.093h-.484zM190.622 90.869v-1.932l-.724 1.932h-.161l-.725-1.932v1.932h-.402v-2.496h.644l.644 1.69.644-1.69h.644v2.496h-.564zM37.335 110.352l-2.416-6.441H21.877l-2.415 6.441H16l10.466-26.97h3.784l10.386 26.97h-3.301zm-9.098-23.106l-4.91 13.364H33.55l-5.314-13.364zM42.81 110.352v-26.97h3.38v26.97h-3.38zM51.263 110.351v-19.08h3.38v19.08h-3.38zM57.864 85.072v-.161-.161a4.923 4.923 0 01-4.75-4.75h-.483a4.923 4.923 0 01-4.75 4.75v.322a4.923 4.923 0 014.75 4.75h.483a4.923 4.923 0 014.75-4.75z" fill="#D9D9D9"/></svg>