<svg width="200" height="200" fill="none" xmlns="http://www.w3.org/2000/svg"><path fill-rule="evenodd" clip-rule="evenodd" d="M66.714 123.288c.792-.602 1.934-.401 2.876-.317.583.05.858.401 1.017.844l4.45 11.051H71.59c-.208-.811-.441-1.78-.733-2.575-1.484.026-2.968.009-4.451 0l-.842 2.575h-3.3c1.541-3.828 2.933-7.741 4.45-11.578zm.542 6.813c.867-.008 1.734 0 2.6 0-.183-1.412-.791-2.792-1.291-4.138-.5 1.338-1.192 2.717-1.309 4.138zm62.648-5.868c-.017-.778.8-1.271 1.5-1.246l15.579.017c1.075.368 1.725 1.496 2.017 2.55l-5.318-.017-.017 9.329h-2.942l-.083-9.505c-2.559.025-5.118.017-7.677.017-.458.201-.534 2.558.517 2.633l2.975-.05v2.032c-.891-.084-1.783-.067-2.675-.059-.517-.042-.967.452-.942.953l.025 3.971h-2.942c.016-3.503-.042-7.114-.017-10.625zm-11.119-1.212c1.55-.092 3.109-.017 4.659-.042.842.017 1.767-.142 2.517.351 1.184.744 1.784 2.199 1.742 3.57-.025 1.58.034 3.159-.033 4.731-.092 1.597-1.409 3.185-3.051 3.235-2.017.109-4.042-.033-6.059-.016-1.717-.067-2.468-2.04-2.634-3.503.016-1.781-.067-3.561 0-5.342.066-1.521 1.35-2.834 2.859-2.984zm1.225 2.407c-.517.226-1.009.711-.984 1.321-.05 1.338-.108 2.667-.091 4.004-.025.828.667 1.739 1.55 1.681.934-.009 1.875.066 2.801-.042.625-.075 1.292-.502 1.342-1.187.1-1.43.016-2.868.033-4.297.042-.844-.683-1.555-1.517-1.522-1.042.026-2.1-.075-3.134.042zm-13.587-2.374c.984-.175 2.009.017 3.009-.117.05 2.801 0 5.609.025 8.418 0 .577.576 1.079 1.142.978 1.176-.05 2.359.034 3.535-.083.391.953.675 1.504 1.5 2.616h-8.319c-.625-.008-.917-.752-.858-1.295-.009-3.503-.05-7.006-.034-10.517zm-12.37 1.622c-.04-.786.584-1.58 1.368-1.689l8.719-.058.008 2.466c-2.242-.025-4.493-.167-6.743-.059-.675.711-.659 2.533.658 2.4l5.443-.026v2.308h-5.51c-1.258-.017-1.5 1.73-.508 2.257l6.727-.05c-.025.911.041 1.738.025 2.658l-8.82-.067c-.683.025-1.408-.501-1.366-1.237-.008-2.976 0-5.935 0-8.903zm-17.503-.151c.017-1.972 3.159-1.989 3.592-1.095 1.25 1.948 2.526 3.896 3.785 5.835.191.285.533.025.65-.2 1.15-1.856 2.284-3.72 3.45-5.568.384-.66 3.876-1.346 3.768 1.179l-.05 10.182h-2.959l-.083-7.791L84.185 135l-4.501-7.641-.042 7.507H76.5c.041-3.419-.034-6.921.05-10.341zm-23.489-1.504c2.609-.101 5.226.067 7.827-.092.008.869.033 1.73-.008 2.6-1.65-.092-7.319-.611-7.644.969-.175.853-.3 4.397.209 5.049.658.853 4.459 1.271 4.467 0 .042-.994.259-2.056-.442-2.892 1.217-.05 2.426-.017 3.643-.042.175 1.446.033 2.909.075 4.364.042.836-.534 1.99-1.484 1.889h-6.201c-.95.034-1.876-.468-2.51-1.153-.816-.987-1.016-2.316-.991-3.553.042-1.43-.025-2.859.033-4.28.092-1.564 1.526-2.767 3.026-2.859zm37.776-56.987c8.801-.059 17.62-.093 26.414.359 2.634.159 5.293.451 7.802 1.32 2.625 1.004 4.959 2.851 6.41 5.284a20.086 20.086 0 012.609 7.448c.433 2.692.291 5.426.316 8.143.025 3.795.05 7.599.05 11.394-.133 4.439-.842 9.153-3.517 12.823a12.912 12.912 0 01-4.993 3.871c-.95.493-1.9-.209-2.526-.886-.133-.402.334-.669.559-.937 2.292-2.048 3.767-4.923 4.343-7.924.541-2.926.633-5.902.658-8.87-.1-3.962-.183-7.942-.733-11.87-.284-2.082-.884-4.172-2.118-5.886-1.208-1.546-2.792-2.9-4.717-3.41-1.392-.41-2.851-.251-4.276-.352-10.178-.284-20.364-.518-30.55-.292-3.117.234-6.3-.376-9.351.435-2.793.66-4.493 3.552-4.768 6.26-.284 3.988-.142 7.993-.233 11.997 0 2.65.383 5.526 2.242 7.565 1.075 1.513 2.892 2.316 4.718 2.333 9.827.501 19.679.359 29.523.443 1.342-.067 2.734.159 4.043-.209 1.5-.627 2.308-2.341 2.3-3.913.017-1.53.133-3.101-.308-4.58-.259-.87-1.209-1.296-2.059-1.246-10.027.2-20.063.31-30.099.476-1.75-.075-3.609.686-4.45 2.3-1.251-.151-2.535-.227-3.743-.578-.2-3.469-.292-6.946-.184-10.416.159-2.992 2.884-5.467 5.852-5.45 11.71-.318 23.43-.46 35.141-.126 3.101.21 6.51.92 8.619 3.411 1.634 1.764 2.559 4.071 2.834 6.446.417 3.485.225 6.996.258 10.499-.1 2.374-.116 4.815-1 7.056-1.367 3.92-5.018 6.754-9.035 7.49-1.868.359-3.768.309-5.66.384-13.578.351-27.181.36-40.726-.618-2.7-.067-5.035-1.831-6.302-4.147-1.6-2.9-1.892-6.311-2.034-9.563-.016-7.549-.208-15.097-.233-22.646.109-2.725.45-5.593 2.009-7.908 1.625-2.625 4.501-4.18 7.443-4.84 6.444-.895 12.978-.853 19.472-1.07z" fill="#D9D9D9"/></svg>