<svg width="200" height="200" fill="none" xmlns="http://www.w3.org/2000/svg"><path fill-rule="evenodd" clip-rule="evenodd" d="M152.135 121.115v-4.761c.313.548.485 1.233.485 2.295.001 1.096-.172 1.849-.485 2.466zm0-15.584c.173.035.381.103.589.24.383.206.591.617.766.891.173.309 6.498 17.125 6.498 17.125s-.068.41-.625 1.746c-.555 1.336-1.043 1.849-1.598 2.09-.557.24-.974.034-1.286-.103-.348-.172-.591-.651-1.634-.651s-1.808.651-1.842 1.267c0 .754.349 1.267 1.321 1.713.974.41 2.538.308 3.893-.548 1.321-.822 1.946-1.815 2.329-2.706.279-.581 6.639-17.741 6.812-18.22.174-.445.486-1.267.799-1.747.348-.513.592-.754.87-.959.417-.343.973-.377.973-.377v-.342h-5.248v.342s.347.034.555.137c.209.171.417.343.557.719.139.377.139.891 0 1.37-.14.411-3.859 10.755-3.859 10.755l-3.963-11.439a1.978 1.978 0 01-.07-.789c.07-.274.453-.478.696-.616.314-.137.731-.171.731-.171v-.308h-7.264v.581zm0-.582v.582c-.279-.103-.453-.103-.453-.103v-.479h.453zm0 11.405c-.245-.445-.557-.788-.94-1.198-.868-.891-2.502-1.952-4.099-2.877-1.6-.959-2.608-1.267-3.27-2.398-.659-1.096-.311-1.986 0-2.467.315-.478 1.045-1.197 2.121-1.197 1.079 0 1.912.376 2.746.993 1.008.753 1.285 1.13 1.876 2.02.205.32.391.652.557.994h.347l-.243-5.274h-.382s-.071.581-.487.752c-.451.138-.555.138-1.009 0-.416-.136-1.563-.752-3.197-.752-1.598 0-3.302.616-4.38 1.712-1.146 1.164-1.564 2.192-1.564 3.425 0 1.266.417 2.911 1.53 3.802 1.112.89 2.746 1.815 3.859 2.432 1.112.616 2.78 1.781 3.127 2.705.313.925.245 1.986-.417 2.843-.695.822-1.633 1.335-3.267.856-1.668-.479-2.189-1.028-2.989-2.192-.8-1.198-1.146-2.5-1.146-2.5l-.487.034.245 6.233.416-.035s.243-.684.904-.787c.869-.171.869 0 1.737.343.835.376 1.67.444 3.059.444 1.391 0 3.475-.753 4.414-1.814.418-.445.731-.856.94-1.336v-4.761h-.001zm-36.599 19.351v-.343h1.39l-1.355-2.569-.035.035v-1.062l.244-.445h.209l2.78 5.308c.209.446.416.72.591.823.209.137.451.206.764.24v.171h-3.128v-.171c.314-.034.521-.069.626-.137.104-.069.173-.172.173-.275 0-.136-.069-.343-.243-.651l-.487-.924h-1.529zm0-11.611v-4.109c1.841 1.541 3.545 1.301 5.143.616 1.842-.822 2.92-3.425 2.92-3.425h.451s0 1.781-1.841 4.212c-1.703 2.261-4.17 2.706-5.944 2.741-.209.034-.451 0-.729-.035zm0-11.782v-1.473h5.04s.035-1.61-.731-3.048c-.764-1.472-1.876-1.782-2.572-1.782-.451 0-1.077.104-1.738.549v-1.61a6.685 6.685 0 012.016-.309c2.711.069 4.38 1.404 5.594 3.083 1.253 1.781 1.182 4.555 1.182 4.555l-8.791.035zm0-14.898v-.137c.904-.033 1.633-.377 2.19-1.13-.349.582-.835 1.267-2.19 1.267zm0-5.206v-.103c.208-.171.416-.343.625-.582l.14-.137c.521-.582.973-1.062 1.216-.994.069.035.105.069.105.137.068.103.104.274.068.48.521-.48.87-.686 1.079-.617.104.034.174.136.174.308v.035c0 .65-1.391 1.439-1.148 1.849l.036.034c.139.034.556-.137 1.598-1.233h.036c.02.018.032.042.034.069-.868.924-1.425 1.301-1.704 1.233-.068-.034-.104-.069-.138-.171-.453-.89 1.286-1.542 1.112-2.022h-.034c-.141-.068-.453.034-1.183.754l-1.25 1.473h-.417l1.598-1.953c.105-.103.07-.205 0-.274h.036s-.036 0-.036-.033c-.209-.069-.798.617-1.146.993-.085.11-.178.213-.279.308-.165.159-.34.308-.522.446zm0-.788c.452-.205.869-.65.729-.925-.034 0-.034-.034-.068-.034-.036-.033-.105-.068-.209-.033h-.104c-.105.033-.245.033-.349.068v.24c.174-.137.382-.24.521-.24.036 0 .07 0 .104.034.036 0 .036.034.036.068 0 .24-.382.582-.661.72v.102h.001zm12.652 39.901l.173 2.192h-.173c-.245-.651-.591-1.13-1.043-1.404-.452-.309-1.008-.445-1.634-.445-.521 0-1.008.103-1.425.343-.417.205-.765.548-1.008 1.027-.245.445-.383 1.029-.383 1.748 0 .581.139 1.062.349 1.506.243.411.59.72 1.043.96.485.239 1.008.343 1.599.343.478.002.95-.092 1.39-.275.382-.171.834-.513 1.285-1.062l.21.103c-.418.582-.87.994-1.425 1.233-.521.274-1.148.41-1.912.41-1.321 0-2.329-.41-3.059-1.163-.555-.583-.8-1.268-.8-2.055 0-.651.175-1.234.521-1.781.349-.515.836-.926 1.461-1.234a5.157 5.157 0 012.085-.445c.555 0 1.146.138 1.704.343a.914.914 0 00.347.103.674.674 0 00.279-.068.683.683 0 00.209-.377h.207v-.002zm9.384-21.098l-.244-5.274h-.347s-.071.582-.521.753c-.417.137-.557.137-.975 0-.452-.137-1.599-.753-3.233-.753-1.598 0-3.302.616-4.378 1.713-1.148 1.163-1.564 2.191-1.564 3.424 0 1.267.415 2.911 1.528 3.802 1.148.89 2.746 1.815 3.859 2.432 1.112.616 2.816 1.781 3.129 2.706.347.924.277 1.986-.418 2.842-.66.822-1.598 1.335-3.266.856-1.67-.479-2.191-1.028-2.991-2.192-.764-1.198-1.111-2.5-1.111-2.5l-.487.034.209 6.233.416-.034s.243-.685.905-.788c.868-.171.904 0 1.738.343.834.376 1.702.445 3.093.445s3.441-.754 4.414-1.815c.938-1.096 1.391-1.918 1.391-3.802 0-1.918-.557-2.602-1.425-3.493-.834-.891-2.504-1.952-4.101-2.877-1.6-.959-2.573-1.267-3.234-2.398-.659-1.096-.313-1.986 0-2.466.279-.479 1.009-1.198 2.085-1.198 1.079 0 1.948.376 2.746.993 1.008.753 1.321 1.13 1.912 2.02.313.48.555.994.555.994h.315zm-22.036-19.728v.24c-.209.171-.451.41-.696.651-.034.102-.034.137.036.137.174-.035.347-.069.487-.137.034 0 .104-.034.173-.068v.102c-.035 0-.069.034-.069.034-.036 0-.036 0-.07.034-.209.07-.451.103-.73.171-.347.343-.557.822-.382.96h.036c.207.068.659-.103 1.215-.514v.103c-.521.377-.973.582-1.215.513-.07-.033-.14-.068-.175-.136v-.034h-.036c-.138-.41.036-.89.453-1.37.277-.309.591-.548.973-.686zm0 6.781v.137c-.173 0-.348-.034-.521-.034-.348.686-1.285 1.165-2.851.993v-.102c1.357.171 2.225-.274 2.608-.924-.557-.103-1.251-.309-2.087-.617l-.521-.205v-.309c.245.103.453.171.662.309a7.04 7.04 0 002.014.685c.557-1.096-.313-2.706-2.676-2.706v-.136c2.33-.069 3.407 1.678 2.921 2.877.137.032.312.032.451.032zm0 7.673v1.61a4.381 4.381 0 00-.939.993c-.904 1.301-1.077 3.287-1.077 3.287h2.015v1.473h-2.259s-.069 2.192.07 2.98c.174 1.13.243 2.808 1.841 4.384.105.103.243.205.348.309v4.109c-.973-.137-2.259-.616-3.371-1.644v-15.412c.94-.959 2.087-1.712 3.372-2.089zm0 26.817v1.062l-1.355 2.534h1.355v.344h-1.564l-.521 1.027c-.14.24-.209.411-.209.548 0 .103.069.172.175.24.104.103.381.138.764.171v.172h-2.017v-.308c.07 0 .106-.035.141-.069.208-.137.416-.445.659-.891l2.572-4.83zm-3.372-39.455v-.137c.208-.137.416-.342.661-.548 0-.034.034-.034.07 0v.034c-.244.24-.487.48-.731.65zm0-.788v-.103c.278-.137.695-.479.695-.753 0-.034 0-.034-.034-.068-.036 0-.07-.034-.105-.034-.14.034-.349.137-.556.274v-.24a5.13 5.13 0 00.382-.103h.104c.105 0 .175 0 .245.034 0 0 0 .034.034.068.139.24-.278.72-.765.925zm0-4.931v-.515c.035-.033.035-.033 0-.068v-.308l.348.445c.209-.548.173-1.028-.14-1.473a.57.57 0 00-.208-.206v.309c.035-.035.035-.068.07-.068.104.102.174.274.208.48-.07 0-.138.033-.138.067-.07.103.104.24.104.411-.07.137-.139.035-.244-.034v.034l.382.377a1.055 1.055 0 01-.382.548zm0-2.124v.309c0 .033-.035.068-.069.068a.944.944 0 00-.452-.445c-.035.034.104.24.035.377-.035-.069-.07-.138-.14-.171v-.583c.279.137.488.273.626.445zm0 1.164v.034l-.105-.068c-.034.136.07.274.105.41V85.7l-.105-.103c.07 0 .105 0 .105.035zm0 .445v.514c-.105.103-.243.172-.417.24-.069 0-.139.034-.209.034v-.651c.07.068.175.137.279.102.034-.24-.209-.274-.104-.513.208.068.243.376.451.308v-.034zm0 4.521v.24a5.284 5.284 0 00-.626.616v-.513c.209-.137.418-.274.626-.343zm0 .822c-.035.034-.105.034-.139.068-.139.035-.279.07-.451.103h-.036v.103c.209-.035.383-.103.557-.137 0 0 0-.034.034-.034h.035v-.103zm0 .754v.136c-.201.138-.41.264-.626.377v-.103c.209-.068.418-.205.626-.41zm0 2.192v.136c-.173 0-.382.034-.626.069v-.138c.245-.033.453-.067.626-.067zm0 1.85v.308l-.626-.206v-.308l.626.205zm0 2.054v.103h-.035a11.517 11.517 0 01-.591-.205V98.1c.175.07.383.103.591.171h.035zm0 8.768v15.413c-.209-.206-.417-.411-.626-.65v-14.044l.626-.719zm0 30.517v.308h-.521v-.171c.244-.035.417-.103.521-.137zm-.626-47.436v-.172l.175-.103c.174-.136.313.206.138.206l-.313.07zm0-23.871v-.309c.07 0 .14-.035.245-.035.104 0 .208 0 .313-.034l.034.137c-.209.069-.383.171-.592.24zm0-.309v.309c-.485.205-.938.41-1.25.65v-.343l.174-.034-.174-.069v-.172l1.008-.205c-.313-.034-.661-.069-1.008-.103V65.8c.452.103.868.138 1.25.138zm0 18.083v.583c-.208-.309-.382-.445-.451-.445-.14-.069-.14.068-.034.445-.244-.412-.522-.686-.765-.822v-.309h.034c.487.171.904.343 1.216.548zm0 2.193v.65c-.451.103-.868.069-1.25-.102v-.96c.174.172.14.48.452.514.347.103-.14-.24-.036-.445.313.136.209.377.696.548.034-.171-.175-.274-.139-.514.104.069.173.205.277.309zm0 3.732v.172l-.382.069.382-.24zm0 .994v.547c-.068.07-.068.103 0 .103v.103c-.068 0-.138.034-.208.034-.314.343-.556.822-.383.959h.036c.139.068.313 0 .555-.103v.103c-.208.103-.416.137-.555.103-.07-.034-.14-.069-.174-.137v-.035a.967.967 0 01.034-.821c-.176.17-.362.33-.555.48v-.103c.208-.172.416-.343.659-.583h.036c.07-.103.139-.24.243-.343l.312-.307zm0 3.493v.138a6.148 6.148 0 00-1.25.239v-.034c.452-.172.868-.308 1.25-.343zm0 1.576v.308c-.416-.136-.834-.24-1.25-.342v-.206c.416.034.834.137 1.25.24zm0 2.088v.07c-.591-.206-.972-.377-1.25-.548v-.138c.347.206.695.412 1.25.616zm0 9.659v14.044c-.451-.549-.834-1.234-1.146-2.021l-.104-.308v-9.557a10.58 10.58 0 011.25-2.158zm-1.25-16.269c.486-.17.904-.65.765-.924-.036 0-.036-.035-.07-.035a.302.302 0 00-.209-.068s-.034 0-.034.033h-.07c-.14 0-.243.034-.382.069v.274c.208-.172.382-.274.555-.274.036 0 .07 0 .104.033 0 0 .036.035.036.069 0 .24-.417.582-.695.72v.103zm0-2.294v-.582h.486l-.486.582zm0-4.898l.104.103a.372.372 0 00-.104-.343v.24zm0-18.494v.17a11.14 11.14 0 01-.869-.239v-.136c.313.102.59.17.869.205zm0 .48v.171h-.035l-.834.171v-.137l.869-.206zm0 .273l-.869.206v.137l.105-.034.243.102-.348.069v.172l.313-.069c-.07.069-.14.171-.208.24-.036 0-.07-.034-.105-.034v.137c.035.034.069.034.105.034l.034.034.034-.034c.14-.206.383-.411.696-.616v-.344zm0 16.92v.308c-.175.034-.071.136 0 .274v.24c-.383-.377-.451-.65-.626-.65-.174.033.07.239.07.547-.14-.136-.244-.24-.313-.376v-.616c.243.067.556.135.869.272zm0 2.328v.96a1.512 1.512 0 01-.383-.274.837.837 0 00-.485-.172v-.583c.104.138.209.274.347.377-.034-.205-.278-.41-.174-.548.313.102.279.548.661.651.104-.068-.209-.411-.036-.48.035 0 .07.035.07.07zm0 2.809v.582l-.869 1.062v-.617l.869-1.027zm0 1.952v.274a5.445 5.445 0 00-.66.616c-.036.103-.036.103.034.138.175-.034.348-.069.487-.138.034 0 .068-.034.139-.068v.102l-.035.035c-.244.068-.486.136-.799.205 0 0-.035 0-.035.034v-.616a2.56 2.56 0 01.869-.582zm0 1.61v.102c-.313.24-.626.41-.869.48v-.103c.243-.035.521-.205.869-.48zm0 2.602v.034c-.035 0-.105.035-.139.035h-.07c.07-.034.138-.069.209-.069zm0 .994v.206c-.279-.035-.591-.103-.869-.103v-.171c.278 0 .556.034.869.068zm0 1.712v.138c-.279-.172-.521-.344-.869-.48v-.068c.348.102.59.274.869.41zm0 12.433v9.557c-.626-1.714-.869-3.187-.869-4.625 0-1.336.209-2.603.59-4.007.07-.308.174-.617.279-.925zm-.869 21.817v-.239h.798v.171h-.277c-.208 0-.382.034-.521.068zm0-68.67v-.171c.139-.034.277-.103.417-.137-.14-.069-.279-.137-.417-.172v-.17c.209.101.417.17.626.273l.138.103-.138.034c-.217.059-.426.14-.626.24zm0-.65v.17c-.279-.102-.557-.205-.835-.273v-.137c.278.067.557.137.835.24zm0 .478v.171c-.313.103-.591.274-.835.41v-.136c.244-.17.523-.307.835-.445zm0 2.707v.136c-.104 0-.208-.033-.313-.068-.14.137-.314.308-.522.445v-.171c.174-.137.349-.275.452-.411l.034-.034h.036l.313.103zm0 .89v.137l-.835.17v-.137l.835-.17zm0 .274l-.557.137v.137l.557-.137v-.137zm0 .274v.172l-.313.068c.105 0 .209.034.313.068v.137c-.279-.068-.557-.137-.835-.171v-.137a.967.967 0 00.313.035v-.035l.522-.137zm0 16.166v.616c-.14-.171-.244-.309-.452-.377-.175.068 0 .206.07.582-.175-.205-.313-.377-.453-.48v-.547c.141.034.245.068.349.103.138.034.312.068.486.103zm0 2.533v.583h-.036c-.243.034-.521.034-.799.034v-1.027c.174.206.278.308.313.274.104-.034 0-.274-.313-.686v-.102l.208-.034a23.754 23.754 0 00-.208-.206v.069h.07c.313.308.487.753.765 1.095zm0 3.905v.617l-.835.993v-.651l.835-.96zm0 1.507c-.036.034-.036.068-.07.068-.138.171-.279.343-.349.514l-.416.41v.104l.313-.309c-.069.212-.069.44 0 .651 0 .034.036.034.036.034v.034c.034.034.104.103.174.103.069.034.173.034.313 0v-.103c-.14.069-.244.069-.313.034 0 0-.036 0-.036-.034v.034c-.174-.137.036-.616.349-.925v-.615h-.001zm0 4.555v.171c-.279-.034-.557-.034-.835-.034v-.102c.244-.035.523-.035.835-.035zm0 1.37v.069a2.459 2.459 0 00-.591-.171h.243c.14.034.244.068.348.103zm0 34.422v.239a.86.86 0 00-.208.172c-.071.103-.141.308-.141.684v5.378h-.208l-.279-.274v-6.199h.836zm-.835-68.808l.14.103c.034 0 .068-.034.068-.068l-.208-.138v.103zm0-.514v.137a4.13 4.13 0 00-.694-.137v-.136c.243.033.486.068.694.136zm0 .411v.103l-.173-.137c-.036-.034.034-.103.068-.068l.105.102zm0 .754v.137c-.278.205-.521.41-.694.65v-.24c.209-.208.441-.392.694-.547zm0 2.603v.171a3.276 3.276 0 01-.694.376v-.136c.277-.137.486-.274.694-.411zm0 .719v.137l-.313.069-.035-.103.348-.103zm0 .513v.137c-.243 0-.451 0-.694.034v-.136c.243-.035.451-.035.694-.035zm0 15.824v.548c-.105-.102-.173-.171-.243-.206-.243.035.138.343.174.617-.279-.274-.487-.48-.625-.582v-.41h.068c.245 0 .454-.001.626.033zm0 1.575c-.313-.376-.556-.651-.694-.856v.308c.173.206.381.48.625.788h.069v.102c-.035-.102-.105-.17-.173-.274h.173v-.068zm0 .754v1.027c-.209 0-.451-.034-.694-.068v-.65c.038.035.086.059.138.068.071 0 0-.103-.138-.343v-.274c.243.274.485.513.659.65.035-.102-.174-.48-.659-1.13l.034.034h.104c-.034-.068-.104-.137-.138-.205v.068h.068c.279.378.487.652.626.823zm0 5.274v.65l-.694.857v-.685l.485-.582c.036-.103.036-.205-.034-.24-.035-.034-.07-.034-.105-.034-.104 0-.208.069-.347.171v-.17c.034-.035.069-.035.104-.035.069-.034.105-.034.173-.069h.036c.069 0 .139.034.209.069.034.034.068.103.068.205l.105-.137zm0 1.542v.103c-.278.273-.521.478-.694.547v-.102c.173-.07.417-.309.694-.548zm0 3.596v.102c-.243 0-.451.034-.694.069v-.069c.209-.034.417-.068.694-.102zm0 35.757v6.198l-.694-.685v-1.404l.659.651v-3.665c0-.411-.034-.651-.138-.754-.14-.103-.313-.137-.521-.171v-.171h.694v.001zm-.694-7.707v-.376c.347.171.555.171.555.171v.206h-.555v-.001zm0-53.909v-.24a.449.449 0 01.104-.137c-.036-.033-.07-.033-.104-.068v-.171c.068.068.138.102.209.171l.068.035-.034.068c-.105.103-.175.24-.243.342zm0-6.713v-.103l.104.103c.069.068-.036.068-.07.068l-.034-.068zm0-.616v-.137l.416.376c.035.034 0 .103-.035.069l-.381-.308zm0-.514v.137c-.175 0-.313-.034-.487-.034V62c.175 0 .312.035.487.035zm0 .377v.137l-.105-.103c-.07-.034.069-.068.105-.034zm0 .651l-.487-.548v.171l.487.48v-.103zm0 .822v.24c-.245.239-.383.547-.487.856v-.377c.104-.24.278-.48.487-.72zm0 2.466v.136c-.14.07-.279.103-.417.171l.173.583c.07 0 .14-.034.245-.034v.136c-.07 0-.141.034-.245.034l.07.274c.034.034 0 .103-.07.103l-.243.068v-.205l.104-.034-.034-.137-.07.034v-.103h.034l-.034-.103v-.89c0 .034.034.034.034.069v.068c.175-.068.313-.136.453-.17zm0 2.911v.171a1.548 1.548 0 01-.487-.65v-.48c.104.411.243.72.487.959zm0 .377c-.036 0-.036.033-.07.068l-.139.103-.209-.616-.07.033v.137l.175.514-.14.171h-.035v.822l.035.034.07.137.034-.17c.07-.344.174-.686.349-.995v-.238zm0 13.323v.41c-.105-.068-.175-.068-.209-.068-.036.069.034.206.209.412v.308a3.257 3.257 0 00-.487-.48v-.65c.175-.001.312.034.487.068zm0 1.473c-.209-.274-.383-.514-.487-.651v.206c.139.17.313.376.487.617-.036-.034-.036-.069-.07-.103h.07v-.07zm0 .65v.274c-.105-.172-.279-.376-.487-.685v-.137l.07.034c-.036-.034-.036-.069-.07-.103.175.24.347.445.487.617zm0 .548c-.209-.103-.349-.24-.487-.377v.96c.175.034.313.034.487.068v-.65zm0 4.932v.171c-.14.137-.313.274-.487.445v-.41c.139-.103.312-.172.487-.206zm0 .856v.685l-.209.24c-.104.137-.174.343 0 .41.069 0 .139-.034.209-.067v.102c-.07.035-.14.035-.209.035h-.104c-.036 0-.036-.035-.036-.035a.272.272 0 01-.139-.136v-.65l.488-.584zm0 4.418v.069c-.175 0-.313.034-.487.068v-.034c.104-.034.278-.069.487-.103zm0 27.572v.376h-.487v-.754c.175.171.347.275.487.378zm0 8.083v.171h-.453v-.171h.453zm0 4.109v1.404l-.487-.479v-1.404l.487.479zm-.487-72.231v-.138l.175.206c.034.034 0 .103-.036.068l-.139-.136zm0-1.371v.137h-.73V62h.73zm0 .513v.172l-.279-.24c-.068-.069.105-.103.139-.069l.14.137zm0 .72l-.73-.753v.24l.73.65v-.137zm0 1.37v.377c-.14.445-.14.89-.036 1.404h.036v.89l-.73.171v-.102l.73-.172-.14-.582-.59.136v-.273l.521-.103c-.104-.65-.034-1.232.209-1.746zm0 2.774l-.73.171v.103l.73-.171v-.103zm0 .24v.205l-.07.034c0 .137.034.308.07.445v.48a3.374 3.374 0 01-.209-.891l-.521.103v-.206l.73-.17zm0 1.61v.136l-.036-.137h.036zm0 .821l-.07-.034-.277-1.267-.106.034.279 1.233-.069.034-.14-.034-.139-.753h-.104l.139.753-.035.034-.208-.103v.24c.313.171.521.411.729.685v-.822h.001zm0 12.844v.65a.732.732 0 01-.174-.101c0 .068.07.17.174.342v.206c-.279-.274-.487-.514-.73-.651v-.41c.035 0 .069 0 .105.034.206-.04.415-.064.625-.07zm0 1.576c-.382-.48-.625-.788-.73-.994v.274c.175.206.383.48.626.788h.104v.137a1.859 1.859 0 01-.209-.274h.173c0 .035 0 .035.036.07zm0 .787v.96l-.73-.206v-.993c.175.24.313.41.556.445.07-.034-.173-.377-.556-.993v-.103l.175.035-.175-.171v.068h.069c.244.308.418.65.661.959zm0 5.514v.411c-.279.24-.521.548-.73.822v-.685c.209-.206.451-.41.73-.548zm0 1.233l-.14.138v.034c-.207.239-.415.444-.59.547v.069c.175-.069.348-.206.556-.445.07-.069.138-.034.138.034 0 .137 0 .206.036.274v-.65zm0 3.94v.034c-.07 0-.104.034-.174.034.034 0 .07-.034.174-.069zm0 27.091v.754h-.73V108.34c.139.582.175 1.062.175 1.198v11.885s0 1.028.451 1.507c.034.034.068.069.104.103zm0 12.09v1.404l-.73-.685v-1.404l.73.685zm-.73-70.554v-.514l.139.137c.07.069.139 0 .104-.034l-.243-.274c.09.092.14.215.139.342a.44.44 0 01-.139.343zm0-1.233v-.137l.383.376c.034.069-.036.069-.07.069l-.313-.308zm0-1.336v.137h-.14V62h.14zm0 .48v.24l-.14-.138v-.17h.105l.035.068zm0 .719v.137l-.14-.137v-.171l.14.17zm0 .685c-.035-.035-.07-.103-.14-.103v-.034l.14.137zm0 .171v.514l-.07.069h-.07v-.275c.036.035.036.069.07.103a.485.485 0 00.07-.239c0-.103-.07-.206-.14-.274v-.034l.14.136zm0 2.397v.274l-.14.035v-.275l.14-.034zm0 .891v.103l-.14.034v-.103l.14-.034zm0 .205v.103l-.14.034v-.103l.14-.034zm0 .24v.206l-.07.035h-.07v-.206l.14-.035zm0 2.158v.24c-.035-.034-.07-.069-.14-.103v-.171l.14.034zm0 12.98v.411l-.035-.034c0 .034 0 .069.035.171v.274c-.035-.033-.07-.103-.14-.137v-.753c.07 0 .105.034.14.069zm0 1.302v.068l-.14-.034v-.206a.621.621 0 01.14.172zm0 .137h-.07c0-.034-.034-.069-.07-.103.07.068.105.137.14.205v-.102zm0 .651v.993c-.035 0-.07-.034-.14-.034v-1.198c.07.102.105.17.14.24zm0 6.302v.685c-.035.068-.07.138-.14.206v-.72c.07-.07.105-.137.14-.171zm0 1.403v.069c-.035.034-.07.068-.14.068v-.103c.07 0 .105-.034.14-.034zm0 15.619v15.447h-.14v-15.893c.07.137.105.309.14.446zm0 26.098v1.404l-.14-.137V134.3l.14.138zm-.14-67.198v-.102h.036v.102h-.036zm0-1.952v-.034l.07.034h-.07zm0-3.288v.137c-.034 0-.104.034-.173.034v-.136c.069-.035.139-.035.173-.035zm0 .411v.171l-.068-.102c-.07-.035 0-.069.068-.069zm0 .617v.17l-.173-.17v-.172l.173.172zm0 .719h-.173v.137h.105c.034.034.068.034.068.068v-.033l-.173-.206v-.171l.173.205zm0 .616v.308l-.034-.103c-.034-.102-.07-.137-.139-.205v-.137c.069 0 .139.069.173.137zm0 .89v.034l-.173-.033v-.137h.035l.138.137zm0 1.233v.275l-.173.034v-.274l.173-.035zm0 .652v.102l-.173.068v-.102l.173-.068zm0 .239v.103l-.173.034v-.102l.173-.035zm0 .206v.103l-.173.068v-.103l.173-.068zm0 .24v.206l-.173.068v-.24l.173-.034zm0 2.089v.17a.75.75 0 00-.173-.101v-.172l.173.103zm0 12.946v.753a.352.352 0 00-.173-.205v-.617a.264.264 0 01.173.07zm0 1.199v.206a1.043 1.043 0 00-.173-.24v-.206c.069.103.139.17.173.24zm0 .719v1.199c-.034-.034-.104-.034-.173-.069v-.788c.069.068.139.103.173.137.036-.069-.034-.24-.173-.48v-.274c.069.104.139.207.173.275zm0 6.712v.72c-.138.274-.208.48-.068.582.034 0 .068 0 .068-.033v.102h-.173v-1.096c.069-.103.105-.206.173-.275zm0 16.406v15.892h-.173v-16.372c.069.172.139.31.173.48zm0 26.406v1.405l-.173-.171v-1.405l.173.171zm-.173-64.491v-.583a1.826 1.826 0 000-.617v-.513c.243.513.243 1.062 0 1.713zm0-7.774v.136c-.14 0-.278.034-.416.034v-.137c.138 0 .277-.033.416-.033zm0 .821v.172l-.416-.411v-.137c.034 0 .068 0 .104.033l.312.343zm0 .685v.171l-.416-.445v-.206l.416.48zm0 .206a.472.472 0 00-.278.068c0-.206-.035-.377-.139-.514v.822l.139-.103c.104-.101.208-.136.278-.136v-.137zm0 .48v.136c-.035 0-.07-.034-.07 0-.034 0-.07.034-.07.137.036.034.105.068.14.137 0 .103.035.205-.035.274 0 .068 0 .137.035.205v.137l-.035-.035c-.035 0-.069 0-.105.035-.034.034-.068.068-.068.171l-.036.137-.069-.102c-.036-.035-.07-.069-.104-.069v-.172c.034.035.068.035.104.069.035-.069.069-.137.105-.172h.068c-.034-.034-.034-.068-.034-.137-.104.034-.175.069-.243.069v-.138l.313-.103v-.136c-.036 0-.036-.035-.07-.035h-.034c-.07 0-.141 0-.209.035v-.138c.034 0 .068-.033.139-.033 0-.172.07-.274.174-.274.034-.033.069-.033.104.001zm0 2.294v.274l-.416.102v-.274l.416-.102zm0 .685v.102l-.416.103v-.103l.416-.102zm0 .206v.102l-.416.103v-.103l.416-.102zm0 .239v.103l-.382.068.034.103.349-.068v.753c0-.17-.07-.342-.14-.513l-.277.068v-.548l.034.138.382-.104zm0 1.575v.755c-.035-.035-.07-.035-.104-.069l-.07-.034.034-.034c.07-.206.14-.412.14-.618zm0 13.563v.617c-.174-.172-.278-.274-.382-.308-.139 0 0 .24.382.72v.205a3.478 3.478 0 00-.416-.513v-.857c.034 0 .068 0 .104.035l.312.101zm0 1.713a2.142 2.142 0 00-.349-.445h-.068v-.103c.034.068.104.137.173.206l-.173-.034c.173.24.313.48.417.65v-.274zm0 .616v.788c-.14-.068-.278-.103-.416-.172v-.685h.034c0-.034-.034-.102-.034-.171v-.24c.138.172.312.344.416.48zm0 6.645v1.096c0-.034-.035-.034-.035-.069h-.035l-.034-.033v-.035c-.104-.171-.104-.41 0-.719-.104.138-.209.206-.313.309v-.103l.417-.41v-.036zm0 15.651v16.372h-.416v-17.124c.173.239.312.513.416.752zm0 26.715v1.405l-.416-.445v-1.405l.416.445zm-.416-42.811v-.72c.068.035.138.103.138.274 0 .172-.07.308-.138.446zm0-29.25v.137a2.906 2.906 0 00-.591.137v-.17c.173-.035.382-.07.591-.104zm0 .412v.137l-.07-.035c-.07-.069 0-.102.07-.102zm0 .582l-.453-.514c-.034-.034-.104-.034-.138 0v.137l.591.583v-.206zm0 .24v.342c-.07-.24-.175-.377-.417-.48-.174.24-.174.548 0 .856l.069.137-.175-.068h-.068v-.137c.068.069.104 0 .034-.068l-.034-.035v-.513l.034-.103-.034-.068v.034c.034-.069.068-.103.104-.171l.034-.035h.036c.172.07.312.171.417.308zm0 1.233v.137c-.105 0-.175.034-.279.068h-.034c0 .034-.036.069 0 .103 0 .034 0 .069.034.103.07 0 .174-.034.279-.034v.137c-.07 0-.105.034-.14.034v.136h.14v.172c-.07-.035-.14-.035-.209-.035l-.209.035.139-.137c0-.035 0-.103-.034-.206v-.035c-.07 0-.105-.068-.14-.136 0-.103.035-.171.07-.206-.035-.103-.071-.137-.105-.137-.036.034-.104.103-.104.274v.068-.445c.034 0 .034-.034.068-.034.106 0 .211.069.279.206.07-.034.14-.068.245-.068zm0 2.089v.274l-.175.034.105.411.07-.034v.103h-.07l.034.102h.036v.65h-.07c-.035-.033-.035-.033-.035-.068l-.07-.274-.416.103v-.274l.347-.068-.104-.445-.243.068V67l.208-.034-.034-.102s0-.034.034-.069c0 0 0-.033.035-.033a2.62 2.62 0 00-.243-.548v-.274c.138.205.278.479.347.753l.244-.07zm0 16.029v.856c-.209-.206-.383-.377-.591-.514v-.48c.208.035.382.069.591.138zm0 1.301c-.313-.377-.523-.617-.591-.787v.274c.174.205.347.41.591.685l-.07-.068h.07v-.104zm0 .684v.24c-.105-.171-.313-.445-.591-.822l.034.035h.104a.564.564 0 01-.138-.172v.068h.034c.174.207.382.447.557.651zm0 .412c-.105-.034-.279-.274-.591-.616v1.027a.453.453 0 01.347.137c.07.034.14.068.245.136v-.684h-.001zm0 5.548v.72c-.175.24-.383.48-.591.685v-.548c.313-.308.659-.582.555-.787h-.034c-.07-.034-.243 0-.521.206v-.103c.243-.171.416-.24.555-.206l.036.033zm0 1.61v.103c-.245.205-.453.343-.591.445v-.103c.138-.068.346-.24.591-.445zm0 14.454v17.124h-.591V106.01c0 .035.034.035.034.069.208.171.382.376.557.583zm0 27.022v1.405l-.591-.582v-1.405l.591.582zm-.591-71.513v.171c-.139.034-.245.034-.383.102v-.17c.138-.035.244-.068.383-.103zm0 .377v.137l-.035-.034c-.035-.069 0-.103.035-.103zm0 .616v.034c-.105.24-.105.48-.035.753a.363.363 0 00-.348.103v.274c.034-.068.034-.103.07-.17.068-.07.174-.07.313-.07v-.136l-.383-.308v-.137l.383.342v-.513.035l-.383-.309v-.206l.383.308zm0 1.268v.445h-.07c-.105 0-.209-.068-.313-.137v-.343c0 .034.034.069.034.103.036.137.104.206.21.24 0-.17.069-.24.139-.308zm0 1.507v.274a2.63 2.63 0 00-.383-.48v-.205c.138.136.278.274.383.411zm0 1.061v.206l-.139.034-.244.24v-.377l.383-.103zm0 .651v.274l-.383.068v-.24l.383-.102zm0 14.864v.48c-.07.034-.07.068 0 .17v.275a3.173 3.173 0 00-.383-.343v-.583c.07 0 .105 0 .139-.033.069.034.174.034.244.034zm0 1.404v.069h-.07l.07.068c-.139-.171-.245-.308-.383-.445v-.137c.104.137.244.274.383.445zm0 .515a4.771 4.771 0 01-.383-.41c.035 0 .035.033.035.033h-.035v.206c.209.273.313.48.313.582a1.933 1.933 0 01-.313-.24v.24c.105.137.175.206.139.274-.034.034-.069.034-.139 0v.411h.07c.105-.034.209-.068.313-.068v-1.028zm0 6.335v.103a8.29 8.29 0 00-.383.274v-.103c.138-.102.278-.205.383-.274zm0 .685v.548c-.139.172-.279.309-.383.445v-.65c.104-.102.244-.24.383-.343zm0 1.2v.102c-.175.103-.279.137-.383.103v-.069c.07 0 .208 0 .383-.137zm0 13.356v17.777h-.383v-18.05c.138.102.244.171.383.273zm0 27.092v1.405l-.383-.344v-1.403l.383.342zm-.383-70.828v.171c-.035 0-.105 0-.139.035v-.137c.034-.035.104-.035.139-.069zm0 .582v.206l-.139-.103v-.24s0 .035.034.035l.105.102zm0 .651v.137l-.139-.103v-.206l.139.172zm0 .548l-.139-.137v.172l.068.068a.075.075 0 00.049-.021.077.077 0 00.022-.047v.651a.734.734 0 01-.105-.171c-.07-.171-.034-.377.07-.48l.035-.035zm0 1.473v.205a.272.272 0 00-.139-.136v-.172c.034.034.104.069.139.103zm0 1.575v.377l-.139.171v-.274l.068-.068h-.068v-.171l.139-.035zm0 .65v.24l-.139.035v-.24l.139-.034zm0 14.762v.583c-.035-.069-.105-.103-.139-.137v-.445h.139zm0 .96v.136c-.035-.068-.105-.102-.139-.171v-.171c.034.068.104.137.139.205zm0 .547l-.035-.034h-.104v-.137c.034.069.104.137.139.171zm0 .035v.206a.747.747 0 00-.139-.206v-.034.034h.139zm0 .548v.24a.747.747 0 00-.139-.207V84.4c.034.07.104.138.139.206zm0 .513v.412c-.035 0-.105.033-.139.033v-.514c.068.035.104.07.139.07zm0 5.926v.103c-.035.034-.071.102-.139.137v-.103c.034-.07.104-.103.139-.137zm0 .754v.65a.317.317 0 00-.035.309l.035.033v.069h-.035c-.036 0-.07-.034-.104-.103v-.72c.034-.068.104-.171.139-.239zm0 13.938v18.05h-.139v-18.153c.034.035.104.069.139.103zm0 27.024v1.403l-.139-.137v-1.404l.139.138zm-.139-41.614a.59.59 0 000-.343v.343zm0-2.809v-.342h.034c.07.034.105.103.07.171-.036.035-.036.069-.07.069 0 .034-.034.069-.034.102zm0-25.994v.137c-.036 0-.104.033-.14.033l-.313.103v-.137c.104-.035.174-.069.244-.103.07 0 .139-.033.209-.033zm0 .377v.24l-.14-.104c-.034-.069.07-.136.14-.136zm0 .616l-.417-.377h-.036v.206l.453.377v-.206zm0 .582v.17l-.453-.376v-.24l.453.446zm0 1.507v.172c-.14-.103-.279-.206-.453-.309v-.136c.175.067.314.17.453.273zm0 1.713v.17l-.453.104v-.172l.453-.102zm0 .239l-.453.48v.274l.453-.103v-.24l-.175.034.175-.171v-.274zm0 15.138v.445c-.07-.034-.104-.034-.14-.068-.069 0-.035.103.14.377v.17c-.175-.17-.313-.308-.453-.41v-.617c.141.035.279.07.453.103zm0 1.336c-.175-.206-.349-.377-.453-.514v.172c.141.136.279.308.453.513v.034c0-.034-.036-.034-.036-.068h.036v-.137zm0 .548v.24c-.157-.19-.308-.384-.453-.583h.209c-.068-.068-.138-.171-.209-.24v.172l.105-.034c.14.137.244.308.348.445zm0 .65v.515c-.14 0-.313.034-.453.034v-.445c.036.034.071.034.141 0 .034-.034-.036-.137-.141-.205v-.24c.141.102.314.274.453.342zm0 2.947v.342c-.07.138-.245.24-.453.275v-.069c.209-.069.314-.137.383-.274-.034-.034-.07-.103-.034-.171.034-.07.068-.103.104-.103zm0 2.808v.48c-.036.034-.104.068-.14.137l-.313.376v-.547l.244-.309c.105-.103.069-.206.034-.274-.07 0-.174.034-.278.137V90.7c.14-.103.244-.137.313-.103 0 0 0 .035.036.035h.034c.034.068.07.102.07.17zm0 1.233v.72s-.036-.035-.036-.069c-.103-.24-.068-.445.036-.651zm0 13.596v18.153h-.453v-18.461c.141.103.314.206.453.308zm0 26.989v1.404l-.453-.445v-1.404l.453.445zm-.453 5.241v-.172h.349v.172h-.349zm0-42.88v-.172l.314-.102c.07 0 .104.034.035.068-.07.102-.208.17-.349.205zm0-30.072v-.102l.105.137c.036 0 0 .034-.034.034l-.071-.069zm0-.582v-.171l.141.137c.034.034 0 .103-.07.103l-.071-.069zm0-1.85v.138a8.764 8.764 0 00-1.284.685v-.137c.392-.289.825-.52 1.284-.685zm0 .48c-.104-.068-.172.034-.104.103l.104.103v-.206zm0 .514l-.347-.343c-.138-.102-.244.034-.209.102l.556.48v-.24zm0 .685l-.798-.787c-.106-.103-.208.033-.14.102l.938.856v-.171zm0 .65v.103l-1.284-1.13v-.171c0-.035.034-.035.068 0l1.216 1.199zm0 .343c-.347-.206-.798-.309-1.284-.343v.137c.446.032.883.148 1.284.343v-.137zm0 2.089v.17l-.972.241-.313.377v-.48l1.285-.308zm0 .617l-.034.033-1.25.274v.274l1.284-.308v-.273zm0 14.555v.617l-.208-.103c-.105-.034-.035.103.208.41v.172c-.313-.343-.555-.514-.659-.548-.104.069.243.41.659.857v.17h-.034c0 .035.034.035.034.07-.347-.583-.798-.96-1.284-1.165v-.343c.347-.068.486-.137.45-.206-.034-.136-.208-.136-.45-.102v-.65l.799.513c.172.138.313.24.485.308zm0 2.296v.24c-.104-.103-.172-.206-.172-.309.068 0 .104 0 .172.069zm0 .445c-.138-.069-.313-.376-.591-.548-.068.205.279.445.315.65-.245.138-.382-.239-.94-.65-.104.308.418.377.382.582-.104.171-.243 0-.45-.24v.651c.427.035.857.035 1.284 0v-.445zm0 3.39v.069c-.034 0-.104.034-.138.034-.279.103-.66.068-1.146.034v-.206c.313.034.659.069 1.18.069h.104zm0 2.158v.103c-.172.102-.381.308-.555.48-.313.273-.486.444-.591.444 0 0-.034 0-.034-.033-.036.033-.036.103-.104.17v-.444h.068c.14-.274.21-.548.14-.651 0-.034 0-.068-.034-.068a.312.312 0 00-.174.034v-.103c.034-.035.034-.035.068-.035h.07c.105.035.14.068.14.103.103.171 0 .48-.14.753 0 0 .036.034 0 .069 0 .034-.034.103.07.103.105-.069.313-.275.485-.412.21-.205.419-.41.591-.513zm0 .548l-1.284 1.575v.07h.347l.938-1.097v-.548h-.001zm0 3.562v.171c-.3.109-.625.133-.938.068l-.347.445v-.102l.451-.548v-.035h.035c.278.035.556.035.799.001zm0 10.515v18.461h-1.284v-19.009c.45.136.868.307 1.284.548zm0 26.851v1.404l-.763-.753v3.904c0 .412.034.651.138.754.14.103.349.172.625.206v.171h-1.284v-6.37h.591l.693.684zm-1.284-34.112v-.376c.45-.686.45-1.507 0-1.61v-.07h.104c.695.07.764 1.267-.104 2.056zm0-14.864c0 .033 0 .033.034.033 0-.033-.034-.068-.034-.102v.069zm0-18.872l.034.034c.034 0 .034-.069 0-.103l-.034-.034v.103zm0-1.165v.137c-.141.102-.245.206-.383.274v-.17c.138-.104.242-.172.383-.24zm0 .446v.171l-.071-.068c-.034-.001 0-.07.071-.103zm0 .616v.103l-.383-.24v-.102c.034 0 .034-.035.07 0l.313.24zm0 .583v.137c-.141 0-.245-.034-.383-.034v-.137c.138 0 .242.034.383.034zm0 2.74v.171l-.383.103v-.206l.383-.069zm0 .205l-.383.377v.376l.383-.069v-.274l-.175.035.175-.171v-.274zm0 13.837v.651h-.383v-.137c.243-.103.313-.172.175-.24a.27.27 0 00-.175-.069v-.445l.383.24zm0 .959v.343h-.036c-.139.034-.035.103.036.24v.068c-.141-.103-.245-.205-.383-.308v-.41c.07.033.105.067.139.067h.244zm0 2.397v.65c-.141 0-.245 0-.383-.033v-.48a.382.382 0 00.243.069c.07-.103-.104-.24-.243-.376v-.171c.174.102.278.204.383.341zm0 3.528v.205c-.141-.033-.245-.033-.383-.068v-.206c.138.034.242.034.383.069zm0 2.158v.102a3.236 3.236 0 00-.383.171v-.205c.138-.068.242-.068.383-.068zm0 .787v.445h-.141a1.8 1.8 0 01-.243.309v-.138c.07-.068.105-.136.175-.205-.07-.034-.104-.137-.036-.274a.31.31 0 01.245-.137zm0 1.405v.068h-.071l.071-.068zm0 2.568v.103l-.383.445v-.136l.383-.412zm0 .617v.068h-.071c-.104 0-.208 0-.313.034v-.102c.139 0 .243-.034.384 0zm0 1.678v.376c-.105.068-.245.172-.383.24v-.206c.138-.136.278-.273.383-.41zm0 7.09v19.009h-.383v-1.405c.175-.479.175-.959.175-.959v-10.754s.068-.685-.175-1.439v-4.555c.138.034.242.069.383.103zm0 26.715v.821a2.705 2.705 0 00-.383-.308v-.513h.383zm0 5.308v1.062h-.383v-.274a.608.608 0 00.243-.171c.069-.069.14-.274.14-.617zm-.384-47.812v-.069l.209-.102c-.07.068-.139.102-.209.17zm0-24.454v-.103c.07.068.035.103 0 .103zm0-1.13v.17c-.313.309-.625.617-.834.96v-.24c.25-.321.53-.62.834-.89zm0 .582c0 .033-.034.068 0 .102v-.102zm0 .445l-.243-.171c-.104-.034-.104 0-.035.068l.244.206h.034v-.103zm0 .342v.137c-.243 0-.521 0-.834.034v-.137c.313-.034.592-.034.834-.034zm0 2.843v.205l-.764.171-.07-.17.834-.206zm0 .514v.376l-.625.137-.07-.24.591-.137.104-.136zm0 13.22v.445c-.208-.069-.521 0-.834.068v-.137c.209-.034.383-.102.279-.206-.07-.102-.174-.102-.279-.102v-.617l.313.206.521.343zm0 .754v.137h-.416c.174-.07.312-.104.416-.137zm0 .376a2.942 2.942 0 00-.834-.239v.376c.139.103.313.24.521.48.07-.171-.416-.48-.104-.445.139.068.279.137.417.24v-.412zm0 2.124v.17c-.034-.067-.07-.137-.07-.24.036.035.07.035.07.07zm0 .48c-.174-.137-.347-.411-.659-.548 0 .24.485.513.313.582-.175-.034-.349-.171-.487-.342v.616c.279.068.555.137.834.171v-.48h-.001zm0 3.321v.206a27.116 27.116 0 00-.834-.103v-.205c.348.033.592.068.834.102zm0 .514v.068a8.179 8.179 0 00-.834 1.13v-.514c.279-.273.556-.513.834-.684zm0 1.78v.206c-.278.205-.591.582-.834.89v-.547c.279-.274.592-.48.834-.548zm0 1.337v.137c-.278.343-.591.583-.834.685v-.102c.243-.104.556-.343.834-.72zm0 3.767v.136l-.07.103c.036 0 .07 0 .07-.034v.103a.54.54 0 00-.278.205l-.069-.068.347-.445zm0 2.294v.206a1.102 1.102 0 01-.347.171c-.174.07-.349.138-.487.138v-.103c.139 0 .313-.035.521-.138.105-.067.243-.17.313-.274zm0 6.577v4.555a2.768 2.768 0 00-.834-1.473v-3.185c.279 0 .592.068.834.103zm0 17.706v1.405h-.834v-.411c.175-.068.348-.24.556-.445.14-.172.244-.343.278-.549zm0 9.112v.513c-.034-.035-.104-.103-.138-.103a3.237 3.237 0 00-.557-.206c-.034 0-.069-.034-.139-.034v-.171h.834v.001zm0 6.096v.274h-.764v-.172h.278c.208 0 .382-.034.486-.102zm-.834-42.607v-.103a.738.738 0 01.521-.068s.035.034 0 .068c0 0 0 .035-.034 0-.103-.034-.278 0-.487.103zm0-4.315c.175-.103.348-.206.451-.342a.422.422 0 00.245-.24c.209-.274-.245-.48-.349-.138a.709.709 0 000 .377c-.101.099-.219.18-.347.24v.103zm0-7.57v-.068.069zm0-12.98l.175-.17v-.035l.138-.41v-.035c-.07-.376-.104-.65-.07-.787l-.034-.514a.664.664 0 00-.174-.309c0-.033-.035-.033-.035-.033v.24c.035.034.035.067.07.137l.035.48c-.035.136 0 .41.07.786l-.14.377-.035.069v.204zm0-5.823v.24c-.07.103-.104.206-.174.274h.174v.137c-.104 0-.174 0-.278.034h-.105l.036-.103c.105-.205.21-.41.347-.582zm0 3.529v.24c-.034-.034-.034-.103-.07-.137-.104-.069-.173-.206-.208-.343-.035 0-.035 0-.069-.035l-.174-.171c-.036-.034-.036-.068 0-.103.034-.034.068-.034.104 0-.036-.068-.036-.17-.07-.274v-.068c-.034-.034-.104-.034-.209 0-.07.034-.138.068-.138.137v.138l.034.376.034.445v.068l.14.137c0 .033 0 .068-.034.102 0 .035-.07.035-.07 0l-.036-.034v.411l-.068.24-.069.138c0 .068-.034.103-.034.136l.173.274-.173.035.034.205-.279-.309c-.034-.033-.104-.033-.208 0a.299.299 0 01-.243.138v-.343c.035-.033.035-.068.07-.102-.035-.034-.035-.069-.035-.069v-.033s-.035-.206-.035-.309v-1.267c.07.24.104.616.139 1.199l.035.377c.035.136.139.204.243.204.104 0 .174-.068.209-.17l.036-.137.068-.24v-.137h-.279c-.034 0-.034-.035-.034-.035-.034-.033-.034-.068 0-.102l.279-.17h.034V68.062l-.034-.48-.034-.376c-.071-.171-.245-.24-.419-.24a.375.375 0 00-.243.103V66.9a.505.505 0 01.243-.068c.14 0 .313.034.419.136.068-.102.207-.17.313-.205.138 0 .243.033.277.103h.036V67c.034.137.068.274.138.377v.034c.07.17.137.308.207.41zm0 2.089v.205l-.972 1.062h-.036l-.522.274v.034h-.104v-.136h.07l.522-.275 1.042-1.164zm0 10.891v.617c-.208 0-.486.102-.834.102.278-.17.8-.205.521-.342-.104-.206-.591.034-.974.068.245-.17.8-.24.521-.445-.207-.206-.485.069-.868.103v-.034c.209-.17.592-.274.451-.445-.104-.068-.242-.034-.451.034v-.65c.592.375 1.148.684 1.634.992zm0 .924v.137c-.174.035-.313.069-.452.069.106-.103.279-.171.452-.206zm0 .515v.376c-.07-.034-.104-.034-.174-.068-.347-.034.07.24.174.48v.068c-.416-.274-.486-.548-.729-.583-.313.034.034.171.138.514-.381-.206-.521-.548-.799-.548-.313 0 .208.308.208.48-.208 0-.312-.172-.451-.31v-.513c.417 0 .73 0 1.077.034.21.035.383.035.556.07zm0 2.534v.616a6.874 6.874 0 01-.765-.274c-.28.105-.571.174-.868.206V84.09c.174.239.417.513.73.616.07-.103-.174-.206-.139-.343.139 0 .383.411.869.582.07-.137-.243-.274-.279-.514.106.002.279.173.452.344zm0 3.528v.205a8.952 8.952 0 00-1.355-.103h-.278v-.069c.035 0 .104 0 .139-.033h1.494zm0 1.301v.514l-.416.616c.138-.034.279-.102.416-.17v.102c-.138.068-.313.137-.486.206-.348.445-.696.924-1.147 1.267v-.445c.139-.17.278-.376.417-.547a2.17 2.17 0 00-.417.17v-.102c.139-.069.313-.137.487-.206.347-.48.73-.994 1.146-1.405zm0 1.644a2.78 2.78 0 00-.347.308c-.244.377-.349.822-.279 1.096.105.171.209.24.383.24.068 0 .138 0 .243-.034v-.103c-.105.034-.175.068-.243.068-.07 0-.105-.034-.175-.034-.104-.137.105-.548.417-.993v-.548h.001zm0 3.63v.103c-.208.068-.486.24-.834.513a8.06 8.06 0 00-.591.686c-.035.034-.035.068.035.103.207-.103.382-.138.52-.069 0 .034.036.069.071.103 0 0 0 .035.034.068v.035c.106.513-.207 1.438-.868 1.883v-.308c.417-.445.73-1.13.799-1.576-.036-.034-.036-.103-.104-.137-.104-.069-.349 0-.661.17 0 .035-.035.035-.035.035v-.513c.34-.312.713-.587 1.113-.822.175-.103.348-.206.521-.274zm0 3.63c-.104 0-.208 0-.278-.034-.035 0-.069-.034-.105-.068-.104-.138-.07-.309-.138-.171l-.036.033c.036.138.104.24.244.275.105.034.209.069.313.069v-.103zm0 6.063v3.185c-.07-.068-.138-.137-.208-.171a3.543 3.543 0 00-1.426-.65v-2.329c.139 0 .279-.035.417-.035a7.273 7.273 0 011.217 0zm0 18.803v.411h-.591v-.206c0 .001.245.001.591-.205zm0 8.118v.171h-.382v-.171h.382zm-1.633-41.305c.104-.206.174-.377.174-.548-.035-.137-.07-.274-.174-.343v.138c.035.034.07.102.07.205.034.102 0 .24-.07.376v.171zm0-23.29v.171c-.035.034-.035.069-.035.103-.035 0-.035.035-.035.069.035.068.035.137.07.205v1.164l-.139.035v-.171l.104-.069a13.304 13.304 0 00-.104-.89v-.48a.263.263 0 01.139-.137zm0 2.328v.344h-.139v-.24a.488.488 0 00.139-.104zm0 2.125v.136h-.035l-.104.068v-.17c.034-.034.104-.034.139-.034zm0 8.46v.65c-.035 0-.07.035-.139.035v-.137c.069-.035.104-.068.034-.137h-.034v-.48c.038.036.086.06.139.068zm0 1.06v.034c-.035 0-.035.035-.07.035.035-.034.035-.069.07-.069zm0 1.267v.515c-.035-.034-.07-.069-.139-.103v-.412h.139zm0 1.953v1.234h-.139v-.857c.034-.034.034-.068 0-.137v-.412c.034.069.104.103.139.172zm0 4.246v.07c-.035.033-.105.033-.139.033v-.068c.034-.035.104-.035.139-.035zm0 .96v.137a.275.275 0 00-.139-.138v-.102c.069.034.104.069.139.102zm0 .719v.17c-.035.034-.07.103-.139.138v-.103a.72.72 0 00.139-.205zm0 1.199v.103c-.035.034-.105.034-.139.068v-.103c.034 0 .069-.034.104-.068h.035zm0 .48v.445c-.035.034-.105.068-.139.103v-.377c.034-.069.104-.103.139-.171zm0 4.28v.514c-.035.034-.105.069-.139.103v-.48c.034-.033.104-.068.139-.136zm0 2.021v.309c-.035.034-.07.068-.139.068v-.24c.034-.035.104-.068.139-.137zm0 6.611v2.329h-.139v-2.296c.034 0 .104-.033.139-.033zm-.139-10.995v-.102c.034 0 .034 0 .034-.035.035 0 .035 0 .07.035 0 0 0 .033-.035.033 0 .035-.035.035-.069.07zm0-26.577v.48c0-.103-.034-.172-.069-.206V67.207c-.105-.138-.243-.172-.417-.172v-.137c.173 0 .347.034.486.137zm0 1.439v.17l-.174.035c-.034 0-.069-.034-.069-.069-.035-.034 0-.068.034-.068l.209-.035v-.033zm0 .855c-.034.034-.104.034-.174.069-.034 0-.138 0-.173-.103-.035-.377-.069-.686-.139-.925v.993h.034l-.034.035v.273c.174 0 .312-.033.486-.102v-.24zm0 2.055v.171a1.984 1.984 0 00-.486.137v-.41c.138.069.312.102.486.102zm0 8.357v.48c-.104-.069-.278-.069-.486 0v-.069c.174-.102.278-.137.139-.239-.035-.034-.069-.034-.139-.068v-.343l.312.172c.07.033.139.067.174.067zm0 .617v.137c-.112.039-.23.062-.348.068.105-.103.278-.137.348-.205zm0 1.78v.412a.58.58 0 00-.209-.103c-.313-.034.243.308.174.514a1.678 1.678 0 01-.452-.343v-.48h.487zm0 1.781v.412c-.034-.138-.209-.343-.486-.65v.034l.278-.035c-.104-.068-.174-.171-.278-.24v.172l.208.034c.104.034.174.137.278.273zm0 .55c-.034.033-.209-.138-.486-.412v.308c.104.137.139.24.139.274 0 0-.069 0-.139-.068v.822c.174 0 .347-.035.486-.068v-.857zm0 3.903v.068c-.174.035-.313.07-.486.104v-.104c.173-.034.312-.068.486-.068zm0 .822v.102c-.034-.034-.069-.034-.139-.068-.104 0-.208-.034-.347 0v-.103c.139 0 .278 0 .382.035.034 0 .069.034.104.034zm0 1.027v.103c-.104.171-.278.309-.486.445v-.103c.208-.17.382-.307.486-.445zm0 1.062v.103c-.17.128-.332.265-.486.41v-.102a5.84 5.84 0 01.486-.41zm0 .582v.377c-.139.102-.313.17-.452.274h-.034v-.103c.07-.034.104-.068.139-.103.138-.136.243-.273.347-.445zm0 1.645v.102c-.174.103-.348.103-.486.103v-.068a.962.962 0 00.486-.138zm0 2.602v.48c-.139.171-.313.377-.486.582v-.547c.138-.172.312-.343.486-.515zm0 2.02v.24a1.306 1.306 0 01-.382.172c-.035 0-.07.034-.104.034v-.103h.07c.138-.068.277-.205.416-.342zm0 6.508v2.296a2.098 2.098 0 00-.486-.069v-2.123c.173-.069.312-.069.486-.104zm-.487 29.935v-.205h.417v.171h-.139c-.104 0-.208.034-.278.034zm0-39.284v-.172c.07 0 .104-.033.139-.033.104-.069.174-.138.278-.206 0-.034.035 0 .035 0 .034.035.034.035 0 .068-.07.07-.14.103-.209.171l-.035.035c-.07.034-.138.102-.208.137zm0-28.393v.137c-.07 0-.14 0-.209.034-.069 0-.173.069-.173.206.034.103.07.206.104.274.035.068.035.103.07.137.069.171.139.412.208.686v.924c-.035-.205-.035-.411-.07-.582l-.277.136c-.034 0-.07 0-.104-.033 0-.034 0-.069.035-.103l.139-.034v-.069l.139-.205c-.07-.274-.105-.48-.208-.65-.034-.034-.034-.103-.07-.172-.035-.068-.035-.17-.104-.24-.138-.067-.278-.102-.382-.067v-.137c.104-.035.243 0 .382.034a.392.392 0 01.278-.24c.069-.036.173-.036.242-.036zm0 2.5c-.07.068-.14.137-.243.137a.39.39 0 01-.21-.103c0-.034 0-.068-.034-.068-.104-.376-.277-.754-.416-1.096v.822l.139-.137c.035.171.104.343.173.48a.472.472 0 01-.138.102c-.07.034-.14 0-.174-.035v.172h.139c0 .274-.035.445-.105.548.14-.206.244-.274.313-.274l.105.445c.104-.41.243-.65.417-.719h.035v-.274zm0 1.883v.411a1.04 1.04 0 00-.348.309c-.07.136-.07.204 0 .273.139.137-.07.411-.313.344-.104.068-.174.102-.244.17v-.753c.035.035.105.07.139.103.035.034.07.034.07.034.034 0 .034 0 .069-.034-.035-.034-.14-.137-.278-.309.313.24.416.138.069-.17l.104.033c-.07-.068-.14-.103-.174-.171v-.171c.14.136.314.274.487.41h.035c.105-.033.139-.137.07-.308l-.417-.41c-.07-.138 0-.172.174-.104-.035-.033-.07-.068-.07-.136l.139-.035c.072.24.28.412.488.514zm0 8.22v.343c-.243-.034-.557.206-.8.24.07-.206.66-.274.418-.445-.175-.103-.348 0-.522.068v-.102c.105-.068.244-.103.139-.205-.07-.034-.105-.069-.139-.069v-.343l.904.513zm0 .651v.069c-.07.033-.174.068-.313.137a.808.808 0 01.313-.206zm0 1.986v.48c-.07-.034-.14-.103-.243-.103-.14.034-.07.206.208.548-.382-.171-.382-.445-.66-.411-.105.034.138.308.695.788v.171h-.07l.07.068c-.382-.41-.695-.685-.904-.822v-.65c.07-.035.209-.103.313-.206.07.034.105.068.105.171.173 0 .347 0 .486-.034zm0 1.919c-.14-.138-.313-.274-.522-.445l-.104-.034c.174.206.452.548.626.787v-.308zm0 .513v.822c-.313 0-.626.034-.904 0V84.33c.347.343.522.445.487.343.07-.068-.14-.308-.487-.72v-.205c.418.412.73.72.904.822zm0 3.87v.104c-.348.068-.66.17-.904.308v-.103a9.29 9.29 0 01.904-.309zm0 .685v.103c-.343.047-.66.203-.904.445v-.103c.313-.273.66-.41.904-.445zm0 1.542v.103c-.104.068-.209.137-.348.206-.209.068-.382.136-.556.136v-.068c.139-.034.313-.068.522-.137.139-.069.278-.172.382-.24zm0 1.028v.103a1.64 1.64 0 00-.417.856c.14-.068.278-.171.417-.24v.102c-.14.069-.278.172-.452.24v.171c0 .308.104.548.278.65.07.035.14.035.174.07v.068c-.07 0-.14-.034-.209-.068-.208-.103-.348-.377-.348-.72 0-.034.035-.102.035-.137-.138.035-.278.103-.382.137v-.102c.105-.035.244-.068.383-.137.07-.309.208-.686.521-.993zm0 3.424v.17c-.348.31-.59.515-.695.651-.07.103-.139.172-.209.24v-.17l.209-.206c.138-.137.348-.309.626-.548-.035 0-.104.034-.14.034-.416.24-.52.103-.695.034v-.308c.244-.035.383.206.591.206a.557.557 0 00.313-.103zm0 1.507v.548c-.313.445-.557.959-.417 1.198l.104.103c.07.035.209.035.313 0v.103c-.14.035-.243.035-.348-.034-.07-.034-.14-.069-.174-.137-.242-.479.035-1.13.522-1.781zm0 8.118v2.123c-.313 0-.626.034-.904.069v-1.918c.279-.104.557-.206.904-.274zm0 29.626v.205c-.174.034-.278.103-.348.206-.104.136-.14.376-.14.719v1.918c-.138.068-.277.137-.416.171v-3.219h.904zm-.903-1.439v-1.61h.174l.208 2.02h-.208c-.07-.136-.105-.273-.174-.41zm0-49.594l.347.343.105-.034c-.174-.17-.348-.308-.452-.445v.136zm0-1.678v-.034h.034c-.034 0-.034.034-.034.034zm0-14.521v.136a.494.494 0 00-.209.069c-.104.068-.138.17-.138.308.138.206.243.41.347.616v.342c-.137-.303-.288-.6-.452-.89a.449.449 0 00-.416 0c-.035 0-.07.034-.105.069v-.171c.035 0 .035-.034.035-.034a.691.691 0 01.452-.035.5.5 0 01.209-.308.395.395 0 01.277-.102zm0 1.609v.343l-.104.068c-.035.035-.07 0-.105 0-.034-.034-.034-.103 0-.103l.174-.136.035-.172zm0 .753h-.035c-.174-.033-.278-.17-.452-.376a1.39 1.39 0 00-.313-.343c0-.137 0-.274-.034-.445-.034-.034-.07-.034-.104-.034h-.035v.172a.93.93 0 01.035.308v.068h-.035v.137h.174c.07.068.14.171.209.24.035 0 .035.034.035.034s0 .034-.035.034l-.21.308c-.034.069 0 .171.07.206.035.034.139.034.174-.034l.07-.103.312.103a.269.269 0 00.174-.068V69.5zm0 1.85v.172c-.347-.24-.66-.514-.974-.651v-.172c.314.172.627.377.974.652zm0 .48c-.034 0-.034 0-.07-.034.035.033.035.033.07.033zm0 .205c-.382-.274-.695-.513-.974-.684v.17c.07.035.14.103.21.138-.036.103.033.171.277.206.14.137.209.308.174.377-.174.033-.418-.377-.626-.412 0 .138.452.445.452.72-.174 0-.313-.137-.487-.24v.206c.105.137.21.24.21.376-.07-.033-.14-.033-.21-.068v.89l.66-.617a.681.681 0 01.314-.308v-.754zm0 6.953v.343c-.209 0-.487.17-.73.17.174-.17.73-.273.451-.376-.14-.137-.416 0-.695.068v-.103c.173-.103.278-.17.138-.205-.034-.035-.069-.035-.138-.035v-.376l.348.171.626.343zm0 .617v.102c-.104.034-.174.068-.278.068a.75.75 0 01.278-.17zm0 2.02v.034c-.591.41-.8.65-.591.719.104.068.278.034.59-.171v.65a.563.563 0 00-.277-.102c-.105 0 0 .136.278.445v.136c-.487-.445-.8-.65-.903-.65-.035 0-.035.033-.07.033v-.513c.208-.136.486-.41.973-.581zm0 2.123v.206l-.382-.377.139-.034c.069.068.173.137.243.205zm0 .583a14.458 14.458 0 01-.834-.788l-.139.034v-.136c.105.068.174.136.278.205l-.14.069a.27.27 0 00-.138-.138c.313.274.974 1.028.87 1.13-.244-.102-.592-.41-.87-.685v.171c.174.172.243.344.243.412 0 .033-.07.033-.243-.069v.789c.313.033.626.068.974.068V84.33h-.001zm0 4.418v.103c-.418.204-.73.444-.939.718 0 .034 0 .034-.035.069v-.171c.243-.274.556-.514.974-.72zm0 .822c-.174.103-.313.274-.487.445 0 0 0 .035.034.069 0 0 .035 0 .035-.034.14-.138.278-.274.417-.377v-.103zm0 1.473v.068c-.418.07-.73.035-.974-.102v-.103c.21.171.556.204.974.137zm0 1.781v.102c-.347.068-.66.137-.974.137v-.102c.314 0 .627-.035.974-.137zm0 2.192v.308c-.104-.068-.243-.103-.452-.068a.493.493 0 00-.208.068c-.104.137-.208.274-.313.376v-.136c.139-.137.278-.343.452-.617.035-.034.035-.034.07-.034.033.034.033.034 0 .068-.035.068-.07.171-.14.24a.492.492 0 01.21-.068.643.643 0 01.38-.137zm0 .993v.17c-.345.395-.67.807-.974 1.233v-.479c.279-.274.592-.581.974-.924zm0 9.007v1.918a1.736 1.736 0 00-.452.137c-.173.034-.348.137-.52.206v-1.747c.276-.171.59-.343.972-.514zm0 26.304v1.61a2.14 2.14 0 00-.625-.719 2.926 2.926 0 00-.349-.206v-.411c.07 0 .14.034.21.034.208.069.346.103.45.103a.265.265 0 00.174-.068c.07-.069.105-.171.105-.343h.035zm0 3.049v3.219c-.313.137-.625.205-.903.274h-.07v-.445c.084-.028.165-.062.243-.102v-1.815c0-.343-.034-.548-.104-.651-.034-.034-.07-.103-.139-.137v-.343h.973zm-.974-51.306c.21.137.418.343.66.582h.174c-.52-.48-.799-.753-.834-.89v.308zm0-1.302c.14-.103.314-.206.521-.343-.173.034-.348.137-.52.206v.137zm0-.514v-.034c.07 0 .105-.034.14-.034-.035.034-.07.068-.14.068zm0-10.549h.07c-.07-.136 0-.171.07-.137.068.069.174.137.278.206l.07-.103c-.21-.136-.383-.24-.487-.376v.41zm0-.925v-.308l.314-.068a.193.193 0 01.173.102c0 .103-.035.171-.104.171l-.383.103zm0-2.157v.17c-.069.103-.069.24-.069.377-.034.171-.07.412-.174.686h.243v.137h-.277c-.035 0-.035.035-.035.035l-.14-.035c.14-.377.21-.65.244-.822a.579.579 0 01.209-.549zm0 .685v.172-.172zm0 1.165v.308l-.73.171v-.308l.73-.171zm0 .822c-.104-.138-.138-.309-.104-.55l-.104-.033c-.034.171-.034.343.035.48l-.035.205c-.174-.033-.382.035-.521.138v.787c.07.035.138.035.243.035-.139-.206-.07-.24.104-.103 0-.035 0-.035-.034-.069.139.103.278.206.416.343v-.171c-.173-.172-.347-.275-.451-.412v-.068a.482.482 0 01.104-.137h.105c.069.033.173.068.242.137v-.582zm0 2.02v.206a1.035 1.035 0 01-.242-.343c.034 0 .138.069.242.137zm0 .514c-.208-.137-.416-.411-.66-.377.07.172.418.377.487.788-.139.034-.347-.239-.556-.41v.24c.138.171.278.342.209.548-.07.034-.14-.034-.21-.102v1.027c.279-.273.487-.514.73-.788v-.926zm0 5.651v.376c-.138 0-.382.035-.73.171.035-.17.626-.274.348-.41-.07-.035-.209-.035-.347-.035v-.48l.209.103.52.275zm0 .616v.103c-.069.035-.138.035-.208.035.035-.035.14-.104.209-.138zm0 2.124v.034c-.313.24-.625.548-.73.822v-.41c.206-.203.456-.355.73-.446zm0 .411c-.277.205-.556.48-.73.548v.822c.21.17.453.342.73.582v-.136c-.625-.548-.868-.822-.66-.788.14 0 .383.137.66.41v-.856c-.069.069-.173.103-.242.069-.105-.103 0-.274.242-.514v-.137zm0 2.397v.171a2.36 2.36 0 00-.59-.582h.208c.07.07.209.24.382.411zm0 .514c-.034-.034-.138-.068-.208-.136l-.521-.48v.138c.209.24.347.445.313.514-.035 0-.174-.07-.313-.206v.787c.243.069.487.103.73.172v-.788zm0 4.933v.17c-.277.48-.313.925-.104 1.2.034.033.07.067.105.067v.103c-.035-.034-.105-.068-.14-.137-.277-.274-.208-.787.105-1.336.034-.034.034-.034.034-.067zm0 3.493v.102c-.242 0-.486-.033-.66-.102-.034-.035-.07-.035-.07-.035v-.102c.035.034.07.034.105.034.174.068.383.103.626.103zm0 2.602v.137c-.034.07-.104.103-.173.171h-.07v-.068a.796.796 0 00.243-.24zm0 1.37v.48a5.5 5.5 0 00-.556 1.13h-.173v-.617c.173-.274.416-.616.73-.993zm0 8.597v1.748a4.437 4.437 0 00-.73.65v-1.814s.035-.035.07-.035c.205-.2.426-.383.66-.549zm0 26.064v.411c-.208-.137-.451-.206-.73-.275v-.342c.174.035.453.104.73.206zm0 2.775v.343c-.034-.035-.069-.07-.138-.07-.105-.068-.313-.102-.591-.102v-.171h.73zm0 3.048v.445c-.236.07-.482.104-.73.102v-.343c.07 0 .105-.033.174-.033.21-.034.383-.103.556-.171zm-.73-13.632v-.343c.279.137.453.137.453.137v.206h-.452zm0-28.427v-.24a.799.799 0 00.244-.24l.07.069-.313.41zm0-11.885v-.17c.14.137.279.273.453.41h-.174c-.105-.103-.209-.171-.278-.24zm0-2.26v-.103c.105-.068.21-.103.314-.171-.105.103-.209.17-.313.274zm0-12.056l.522-.136c.07 0 .104-.069.07-.138 0-.034-.07-.068-.105-.068l-.486.103v.24zm0-.24v.24l-.243.035-.626.65.869-.205v.308l-1.947.41v-.273l.696-.171.625-.617-1.32.308v-.205l1.947-.48zm0 1.61v.787c-.556-.068-.417.069-.243.343-.66-.17-.799-.034-.452.24-.73-.137-.972 0-.451.274-.66-.035-.834.033-.487.205h-.313v-.445l1.773-1.027c-.035-.138.035-.274.174-.377zm0 2.295v.24c-.138-.137-.277-.24-.347-.343.104-.034.21.034.348.103zm0 .685c-.173-.171-.417-.445-.625-.48.208.344.59.549.59.857-.277.137-.555-.48-1.007-.548.07.309.66.48.591.89-.314.069-.417-.513-.94-.65.105.24.453.377.626.959-.243 0-.451-.48-1.007-.685.348.377.556.72.626 1.027-.174.034-.521-.479-.8-.65v.205c.348.377.487.513.417.72-.104.034-.243-.104-.417-.275v.343c.035.103.035.137 0 .137v.822h.035l.66-.548.59-.514c.244-.206.452-.376.662-.582v-1.028zm0 4.59v.479a2.255 2.255 0 00-.556.206c.209-.24.626-.309.452-.445-.21-.138-.695.205-.974.17.105-.17.696-.239.383-.376-.208-.171-.556.103-.87.103.174-.206.522-.309.314-.377-.14-.171-.314.103-.696.137v-.137c.209-.103.452-.171.279-.24-.07-.034-.174-.034-.279 0v-.48c.035.035.07.035.105.035l.8.376 1.043.548zm0 3.013v.103c-.59.48-.833.822-.73 1.028.28-.104.452-.343.73-.582v.41c-.034.035-.034.068-.034.103h.035v.822a2.03 2.03 0 00-.661-.343c-.105-.034.104.205.66.65v.172c-.66-.48-1.042-.754-1.216-.754-.208 0 .104.309.939.96h-.105c-.66-.549-1.112-.857-1.425-.89-.14-.035.14.273.904.855l-.139.034a6.176 6.176 0 00-.904-.616V81.9c0 .034.035.068.035.103.139.034.278-.035.417-.206.104-.24.973-.96 1.494-1.165-.487.583-1.494 1.233-1.39 1.61.278.07.244-.548 1.39-1.13zm0 2.808l-.382-.342-.104.034c.104.068.313.274.487.445v-.136zm0 .446c-.277-.206-.625-.548-.973-.822l-.208.034c.695.548 1.008.857.938.994-.208-.034-1.078-.754-1.286-.96l-.174.07c.591.513.973.856 1.146 1.027-.313.24-.556-.377-.834-.309-.104.137.487.377.382.479-.313.103-.556-.377-.799-.342-.104.137.417.342.417.513-.14.068-.347-.068-.556-.206v.24c.035.034.035.069.07.103h-.07v.48c.8-.069 1.39-.275 1.773-.582.07.033.105.033.174.068v-.787zm0 8.46v.102c-.277-.102-.417-.274-.45-.479-.036-.068-.036-.137-.036-.205-.035-.309.556-.172.243.136-.07.068-.104.137-.07.171h-.034c.07.138.21.206.348.275zm0 2.294v.24l-.417.513c-.416.617-.8 1.13-1.077 1.576-.174.24-.314.445-.452.65v-.478c.104-.103.174-.206.279-.344.347-.41.694-.855 1.112-1.335l.522-.686c-.348.274-.835.548-1.426.857-.034 0-.069 0-.069-.034 0 0 0-.034.035-.034.625-.308 1.111-.616 1.494-.925zm0 2.81c-.173.24-.277.479-.347.616h.348v-.617zm0 8.185v1.815a3.645 3.645 0 00-.556.719c-.73 1.129-.59 2.294-.59 2.294v10.481s0 1.028.451 1.507c.244.274.487.445.696.514v.343h-1.947v-18.804c.244-.206.348-.309.348-.309h.452v2.809c0 .001.348-.616 1.147-1.369zm0 25.276v.342c-.243-.034-.486-.068-.764-.068-.416 0-.834.068-1.181.171v-.411a5.568 5.568 0 011.078-.103c.278 0 .555.035.8.07-.001-.001.033-.001.068-.001zm0 2.98v.171h-.069v-.171h.07zm0 3.252v.343c-.208.034-.45.034-.695.034a7.091 7.091 0 01-1.251-.102v-.479c.417.171.834.274 1.286.274.21-.001.452-.035.66-.07zm-1.946-44.797v-.103c.244-.171.591-.479 1.078-.993h.07v.069c-.488.478-.87.855-1.148 1.027zm0-.788c.313-.342.591-.65.591-.993v-.034c0-.137-.07-.24-.174-.274-.104-.034-.243 0-.417.103v.103c.209-.137.313-.137.382-.103h.035c.069.171-.14.41-.417.65v.548zm0-8.528c.14.068.244.171.382.274l.14-.068a12.79 12.79 0 00-.522-.412v.206zm0-1.645c0-.102.14-.17.279-.205.416-.377 1.112-1.062 1.25-1.302-.625.377-1.32.856-1.53 1.062v.445zm0-.616l1.147-1.233c-.522.275-.904.514-1.147.754v.48zm0-.753v-.309c.295-.2.61-.372.938-.513-.278.103-.59.377-.938.822zm0-.685c.174-.136.313-.308.382-.445a9.028 9.028 0 01-.382.274v.171zm0-.686v-.034c.035-.033.035-.033.07-.033-.035 0-.035.033-.07.067zm0-9.726v.205l-.73.171-.59.583 1.32-.274v.274l-2.815.616c-.07.034-.14-.034-.174-.102a.186.186 0 01.105-.172l1.18-.24.591-.582-1.842.412c0 .033-.034.033-.069 0v.41c.035.172.07.308.07.308 0 .069-.035.103-.07.137v.206a.353.353 0 00.244-.343c0-.035-.174-.822-.174-.822v-.034c0-.034-.034-.068-.07-.103v.069h.036l2.988-.72zm0 2.534v.445c-.313 0-.347.138-.07.309-.695-.034-.833.034-.451.343-.696-.206-.799-.103-.382.274-.696-.069-.834.034-.417.308-.626-.205-.73-.102-.348.274-.696-.17-.834-.068-.383.274-.66-.17-.763-.068-.278.309-.416-.069-.52-.069-.52.068l-.174-.035v-.547c.14-.069.278-.172.416-.274l1.078-.789c.445-.236.874-.499 1.286-.787l.243-.172zm0 2.295c-.07-.034-.139-.069-.209-.034.07.068.14.171.209.24v-.206zm0 .65c-.174-.205-.347-.41-.59-.478.347.376.52.685.59.822v-.344zm0 .48v.822l-.139.136-1.39-1.13c1.008.652 1.043.583.105-.24 1.285.857 1.46.788.451-.205.243.068.383.171.521.274.243.241.383.343.452.343zm0 1.781v.48c-.174.034-.382.17-.486.136.278-.136.382-.24.313-.342-.104-.034-.348 0-.73.171l.834-.684c0 .102.035.205.069.24zm0 .72v.136h-.174c.035-.068.105-.102.174-.137zm0 1.232c-1.043.445-1.46 1.302-1.738 1.302.07-.41 1.112-1.199 1.46-1.576-.487 0-1.425 1.2-1.668 1.165-.174-.17.59-.993 1.32-1.541-.59.205-1.146 1.027-1.494 1.095 0-.376 1.078-1.198 1.147-1.37-.556.172-.904.582-1.112.549.07-.206.348-.515.8-.857L92.04 79.16v-.172c.209-.102.417-.308.556-.375.834-.651 1.46-1.13 1.877-1.371.139-.24 0-.445-.313-.206-.243.206-.626.445-1.25.754a6.866 6.866 0 01-.87.445v-.72c.104.07.209.138.313.138.035-.103-.138-.24-.313-.411v-.171c.244.171.522.41.73.41.14-.17-.313-.342-.348-.547.21.068.452.376.73.342.07-.17-.208-.273-.139-.41.21 0 .28.206.522.171.035-.034-.173-.171-.069-.274.034-.034.209 0 .52.035l-.034-.103c.104 0 .104-.068.14-.137-.731-.514-1.392-.924-2.052-1.198v-.206c.765.274 1.425.685 2.051 1.164.07-.034-.035-.206-.313-.513.348.102.556.513.66.376-.034-.068-.173-.24-.416-.514a7.869 7.869 0 00-1.981-1.027V74.5c.904.275 1.807.788 2.71 1.541.035 0 .035.069.035.103l.174.103-.035.137c-.069.205-.034.342.035.445.07.033.104.102.035.17l-.452.446c-.452.206-1.286.787-2.503 1.815v.582c.313.275.626.583 1.009.891l.798.72.487.41.383.308.069.103c.07.068.035.103-.07.137-.25.072-.486.189-.695.343a3.845 3.845 0 00-1.98-.034v.343h.068l.73.343c-.034-.274-.625-.343-.243-.445.417 0 .348.24.765.376.034-.205-.452-.376-.07-.376.279-.035.314.171.66.24.035-.103-.381-.275-.103-.24.382 0 .764.206 1.216.548v-.206c-.209-.206-.313-.308-.278-.342.07.034.174.068.278.103V81.42c-.034.034-.034.034-.034.068 0 .24-.105.309-.313.206-.07-.206.034-.343.278-.377l.069-.068v-.48c-.139.137-.243.24-.313.342-.07.309-.209.446-.382.309-.14-.171 0-.343.243-.377.174-.206.313-.411.452-.548v-.308c-.382.24-.625.513-.765.753-.07.171-.174.24-.243.171-.313-.273.487-.821 1.008-1.301v-.171c-.625.445-.973.65-1.181.96 0 .205-.07.239-.243.205-.174-.206-.035-.343.312-.548.244-.41.66-.65 1.112-1.13v-.037zm0 5.754v.24c-.139-.205-.486-.41-.382-.48.035-.034.208.104.382.24zm0 .343c-.556-.103-.73-.548-.973-.548-.14.103.383.514.383.617-.278.034-.765-.617-1.009-.651-.244.103.452.513.521.685-.313.206-.834-.513-1.251-.65-.07.205.486.513.522.685-.417 0-.696-.446-1.043-.548-.139.136.382.376.348.513-.14.035-.313-.035-.522-.206v.857l.522-.309c.973.102 1.807.102 2.502.034v-.479zm0 5.651v.103c-.174.103-.452.308-.8.65l-1.215 1.473h-.452l1.599-1.952c.103-.102.069-.205.034-.274-.139-.034-.522.343-.834.582-.313.308-.486.48-.591.48l-.035-.035c-.034.035-.034.137-.174.171h-.07a4.387 4.387 0 01-.486.582v-.136a5.89 5.89 0 00.417-.48c-.07-.068-.105-.137-.035-.274.105-.136.21-.17.314-.136.139-.274.208-.548.139-.686 0 0 0-.034-.034-.034-.21-.034-.487.137-.8.411v-.308c.244-.137.487-.206.695-.206h.07c.104.034.139.068.139.103.104.171 0 .48-.14.754.036 0 .036.033 0 .033 0 .069-.035.138.07.138.104-.069.313-.274.487-.41.347-.344.695-.686.903-.618l.034.034h.035c.07.103.105.308.07.548.243-.24.486-.41.66-.513zm0 .65c-.417.377-.973.822-.695 1.37.034.104.07.137.139.172.139.034.313-.035.556-.206v-.103c-.278.206-.417.24-.521.24 0-.034-.034-.034-.034-.034-.105-.24.208-.548.556-.89v-.549h-.001zm0 6.132v.478c-.104.171-.209.309-.278.446h-.521c.243-.274.52-.582.799-.924zm0 7.363v18.803H92.04v-17.091c.244-.102.487-.205.765-.342.81-.359 1.569-.82 2.259-1.37zm0 26.441v.41c-.452.172-.834.411-1.146.788a3.155 3.155 0 00-.66 1.952c0 .582.173 1.165.45 1.645.314.512.696.89 1.148 1.096l.209.103v.479c-.939-.172-1.668-.514-2.26-1.096-.348-.343-.625-.753-.764-1.164v-1.747c.104-.24.209-.48.382-.754.383-.581.939-1.062 1.634-1.404a4.914 4.914 0 011.007-.308zM92.04 96.181v-.035c.209.035.313.103.382.103-.138 0-.242-.034-.382-.068zm0-12.775v-.137c.104.068.209.137.244.24a1.74 1.74 0 00-.244-.103zm0-4.692v-.171c.14-.069.244-.103.382-.172-.034.103-.208.24-.382.343zm0-8.666v.069c-.034 0-.07.068-.034.102 0 .034.034.069.034.069v.41c-.034-.17-.07-.342-.07-.445v-.274c.036.002.07.035.07.07zm0 1.096v.206s-.034.034-.07.034v-.172c.036-.033.07-.033.07-.068zm0 2.81v.547l-.07-.033v-.48c.036 0 .07-.034.07-.034zm0 .547s-.034 0-.07-.034v.171h.07v-.137zm0 .65v.206s-.034 0-.07-.034v-.205c.036-.001.07.033.07.033zm0 1.919v.171c0-.034-.034-.068-.07-.103v-.137c.036.034.07.034.07.069zm0 .445v.719l-.07.068v-.856l.07.069zm0 1.028v.171c0 .034-.034.069-.07.069v-.206c.036 0 .07-.034.07-.034zm0 .444v.172l-.07.033v-.136c.036-.034.07-.034.07-.069zm0 .275v.582c0-.034-.034-.068-.07-.103v-.41c.036-.035.07-.035.07-.07zm0 3.459v.343c-.034 0-.034 0-.07.034v-.343c.036 0 .07 0 .07-.034zm0 .548v.137s-.034 0-.07-.034V83.2c.036 0 .036.033.07.068zm0 1.815v.857s-.034 0-.07.034v-.959c.036.034.07.034.07.068zm0 5.89v.31c0 .033-.034.068-.07.102v-.377c.036 0 .07-.034.07-.034zm0 1.508v.136c0 .035-.034.035-.07.069v-.103c.036-.034.07-.068.07-.102zm0 3.665v.034h-.07v-.068c.019.02.043.031.07.034zm0 10.548v17.091h-.07v-17.091h.07zm0 27.195v1.747c-.034-.103-.034-.205-.07-.308v-1.096c.036-.138.036-.241.07-.343zm-.07-63.91v.241c-.069-.137-.277-.206-.45-.137a.268.268 0 00-.179.088.26.26 0 00-.066.186l.174.787c.07.103.278.137.452.103 0-.035.034-.035.069-.035v.171h-.035c-.243.069-.556.034-.66-.17v-.035l-1.669.411v-.308l1.634-.376-.104-.411-1.529.377v-.24l1.495-.343c.034-.17.138-.343.381-.377.175-.035.35-.035.488.069zm0 4.007v.48l-.521-.137c.174-.137.348-.24.522-.343zm0 .48c-.208-.068-.45-.103-.66-.137-.174-.034-.451.137-.556.274-.104.103-.104.172-.069.24 0 .034.034.034.07.069-.383.275-.73.617-1.148 1.027v.171c.387-.385.793-.75 1.217-1.095.382.068.764.17 1.147.308v-.206a5.95 5.95 0 00-1.112-.307c-.035 0-.035-.034-.035-.034-.035 0 0-.035.035-.103.104-.103.313-.24.416-.206.244.034.452.103.696.172v-.173zm0 2.534v.137c-.069-.068-.139-.137-.139-.24.035.035.07.069.14.103zm0 .446c-.208-.138-.417-.343-.695-.514.035.171.73.685.66.856-.277.034-.695-.514-1.216-.822 0 .24.834.754.834.994-.451.136-1.146-.925-1.46-.994-.07.171.87.89.834 1.096-.243-.035-.695-.412-1.32-1.062v.034c.034.171.451.583.695.89-.278-.136-.521-.41-.696-.582v.308c.279.275.66.548 1.148.857 0 .103.035.171.139.24-.07.273.312.616.59.582.14 0 .244.068.28.17.068-.067.138-.102.208-.17v.41c-.035-.068-.105-.102-.14-.17-.104 0-.138-.07-.104-.172l.244-.206v-.136c-.105.034-.209.068-.313.034-.035-.069.138-.172.313-.309v-.206c-.383.206-.66.411-.835.343-.208-.274.382-.274.835-.617v-.854zm0 5.308v.343c-.069 0-.069.034 0 .103v.17c-.243-.102-.417-.137-.555-.137-.28.035.069.172.243.412-.452-.137-.555-.344-.869-.274-.348.102.243.17.314.48-.417-.207-.731-.241-.974-.137-.347.136.73.274 1.077.65l-.243.137c-.52-.342-.903-.479-1.146-.479-.034.103.209.274.764.548l-.174.034a5.97 5.97 0 00-.8-.412v-.478h.034c.383-.377 1.182-.72 2.017-.857l.313-.103zm0 2.261c-.312-.275-.66-.685-.903-.754l-.21.138c.488.342.8.617.94.822-.105.103-.557-.309-1.356-.72l-.14.035c.487.308 1.044.718 1.044.89-.14.034-.904-.41-1.53-.788l-.104.035c.452.24 1.286.822 1.286.96-.14.067-.52-.241-1.39-.686v.17c.382.275.834.617.834.686l-.835-.377v.24c.21.206.383.343.383.411-.105-.034-.243-.103-.383-.171v.856c.8-.103 1.564-.377 2.364-.788v-.959zm0 5.993v.377c-.555.548-1.077 1.404-.938 1.576.07 0 .104.033.174.033.209 0 .487-.136.765-.41v.103c-.278.239-.556.41-.765.376-.174 0-.278-.068-.382-.239-.07-.24 0-.582.174-.925-.278.24-.487.41-.59.548-.105.069-.14.137-.21.171 0 0 0 .035-.034.035a1.367 1.367 0 01-.557.342v-.342c.313-.445.66-1.13.73-1.439 0-.137-.139-.103-.277 0l-.452.48v-.137l1.147-1.13c0-.035.035-.035.07 0v.068l-.243.206c-.21.376-.07.753-.14 1.233a.93.93 0 01-.103.445c.173-.171.382-.377.764-.65.312-.31.59-.55.868-.72zm0 5.103v.069a6.864 6.864 0 00-2.363 0v-.206c1.009-.068 1.877.035 2.364.137zm0 10.583v17.091h-1.668v-.206s.52.035 1.147-.651c.452-.479.452-1.507.452-1.507V108.99s-.035-.514-.626-.994c-.521-.41-1.182-.343-1.182-.343v-.274c.001.002.696-.204 1.878-.684zm0 27.537v1.096a2.935 2.935 0 01-.069-.548c0-.205.035-.377.07-.548zm-2.363-36.544v-.103c.278-.136.557-.274.974-.377h.243c-.59.138-.904.309-1.217.48zm0-7.638v-.343c.034 0 .07 0 .105.035.07.033.104.17.035.239a.267.267 0 01-.14.07zm0-5.445c.07.033.105.068.175.103h.173c-.138-.103-.243-.171-.348-.24v.137zm0-13.974v.24l-1.425.308c.034.103.07.274.105.411l1.32-.308v.308l-1.285.275v.034c.034.17-.105.343-.349.41h-.243v-.171c.069.034.14 0 .208 0 .035-.034.244-.068.21-.24 0 .035-.14-.685-.14-.787-.034-.103-.139-.137-.278-.137v-.171c.173 0 .313.068.382.17l1.495-.342zm0 5.308v.172c-.138.137-.243.274-.382.41-.104.07-.139.172-.034.378.034.068.104.17.138.24.07 0 .175.102.278.205v.308c-.243-.24-.416-.445-.52-.685-.14-.206-.14-.376.034-.548.173-.171.313-.342.486-.48zm0 1.062v.034-.034zm0 6.714v.478c-.278-.102-.52-.17-.73-.17-.313.068.174.136.73.444v.137c-.695-.343-1.043-.48-1.39-.377 0 .137.521.206 1.182.65l-.139.035c-.591-.342-1.043-.513-1.32-.41-.07.068.312.274 1.077.65l-.104.068c-.626-.308-1.009-.445-1.182-.411v-.616c.105-.069.174-.137.278-.171.555-.411.903-.342 1.598-.307zm0 1.232a3.582 3.582 0 01-.382-.171l-.07.068c.105.069.279.172.452.274v-.171zm0 .48l-.764-.343-.105.069c.244.102.591.308.87.513v-.24zm0 .48v.855c-.138.034-.243.034-.382.068-.625.069-1.146-.068-1.494-.342v-.035l.382-.376a3.453 3.453 0 00-.382-.171v.376l.243-.275c.348.172.556.206.591.172-.035-.069-.173-.206-.451-.377l.069-.138c.695.309 1.181.686 1.286.651-.105-.205-.383-.513-1.078-.89l.07-.068c.174 0 .695.344 1.146.55zm0 3.8v.344c-.034 0-.069 0-.103-.035-.105-.033-.105-.17-.035-.24a.266.266 0 01.138-.068zm0 1.85v.137l-.382.342c.07.068.07.138.07.24-.105.137-.244.206-.487.206l-.07.068c-.034.171 0 .309.105.41.104.07.243.07.417.035.104-.069.209-.206.347-.343v.343l-.416.102a.581.581 0 01-.418-.068c-.103-.103-.138-.274-.103-.445-.383.41-.696.582-.939.582v-.068c.278 0 .591-.24 1.008-.753h.034c.035-.171.14-.309.28-.343h.103l.451-.445zm0 4.419v.206c-.59.102-1.181.273-1.876.513v-.309c.66-.239 1.285-.342 1.876-.41zm0 1.609v.103c-.416.24-.799.513-1.876.856v-.103c.938-.273 1.355-.582 1.876-.856zm-1.876 39.421v-4.692c.764.616 1.112 1.369 1.112 2.329 0 .924-.348 1.712-1.112 2.363zm0-13.22v-1.096c.069.068.104.137.173.206.626.719 1.147.65 1.147.65v.241h-1.32v-.001zm0-29.01v-.136a5.745 5.745 0 011.841.445h-.104a8.915 8.915 0 00-1.737-.309zm0-2.226c.278-.376.799-.924 1.39-1.678l-.486-.034-.904 1.096v.616zm0-1.575v-.103h.104l-.104.103zm0-5.343c.139.034.278.102.486.24l.105-.171c-.21-.137-.418-.206-.591-.274v.205zm0-.411c.243 0 .486.103.764.274l.14-.103c-.452-.171-.73-.274-.904-.376v.205zm0-14.42v.172c-.035-.034-.105 0-.175 0a.227.227 0 00-.21.178.219.219 0 00.002.097l.14.787c.034.07.138.103.243.103v.172c-.175 0-.313-.069-.383-.206l-.034-.034-.14-.788c-.034-.24.105-.41.349-.48h.208zm0 13.392v.617c-.035 0-.07.034-.07.068-.07.034-.035.069.07.137v.205c-.07 0-.14.034-.21.034 0 .069.07.137.21.171v.206c-.07 0-.14 0-.21.034 0 .068.07.137.21.24v.376l-.105.137c.035.034.07.068.105.068v-.034.034c-.105-.034-.349-.411-.349-.411-.416-.477-.278-1.367.349-1.882zm0 6.679v.103c-.904 1.199-1.67 1.815-1.426 2.09.244.102.556-.138 1.078-.72l.035-.034.313-.376v.616c-.174.206-.243.376-.174.513.07.035.14.035.174.035v.068h-.104c-.244-.034-.348-.17-.313-.48-.035-.068-.035-.102-.209.103-.278.24-.487.377-.66.377h-.035c-.07 0-.139 0-.243-.034V93.1c-.034 0-.034-.035-.07-.035v-.72l.974-1.164v-.034c0-.103 0-.171-.034-.24-.035 0-.07 0-.07-.034-.243.034-.556.274-.869.616v-.445c.226-.126.474-.207.73-.24h.07c.104 0 .174.034.174.068.069.034.104.137.104.206l.174-.24.38.034zm0 3.768v.136c-.627-.034-1.182.034-1.634.206v-.171c.452-.171 1.007-.24 1.634-.171zm0 1.746v.309c-.243.068-.487.171-.765.274-.28.127-.571.23-.87.308v-.205c.244-.069.452-.206.696-.309.312-.17.625-.274.939-.377zm0 2.055v.103c-.07 0-.14.034-.243.069-.522.068-1.009.068-1.391-.035v-.103c.382.07.869.103 1.39.035.104-.035.174-.035.244-.069zm0 24.249v1.096h-1.634v-17.639c1.251 1.198 1.356 3.082 1.356 3.39v11.851s0 .789.278 1.302zm0 9.624v4.693s0 .034-.035.034c-.452.411-1.008.651-1.599.822v-.445a2.22 2.22 0 00.66-.445c.522-.479.766-1.198.766-2.226 0-1.096-.28-1.883-.834-2.432a1.795 1.795 0 00-.591-.41v-.445c.603.14 1.164.422 1.633.821v.033zm-1.634-42.709v-.309c.296-.229.61-.435.938-.616a2.804 2.804 0 00-.938.41v-.102c.348-.206.73-.377 1.112-.411.034 0 .034 0 .034.034 0 0 0 .034-.034.034h-.035c-.378.3-.737.62-1.077.96zm0-.616v.102c-.383.206-.765.514-1.147.856v-.103c.382-.342.764-.65 1.147-.855zm0 .307a10.84 10.84 0 00-1.147.993v.514c.355-.424.738-.824 1.147-1.199v-.308zm0 1.748v.445c-.556.548-1.112 1.336-.974 1.61.209.068.452-.137.8-.514v-.034l.174-.206v.72c-.07-.068-.07-.206-.07-.377-.034-.033-.034-.033-.069-.033-.313.376-.59.65-.903.513h-.035.035l-.035-.034h-.034V93.1c-.035 0-.035-.034-.035-.034v-.856c.207-.447.659-.892 1.146-1.166zm0 3.767v.171a2.25 2.25 0 00-1.147.822v-.206c.3-.363.697-.636 1.147-.787zm0 2.26v.206c-.417.137-.8.24-1.147.274v-.103c.348-.069.73-.205 1.147-.376zm0 1.404v.103a1.995 1.995 0 01-1.147-.548v-.308c.243.343.626.617 1.147.753zm0 7.672v17.64H84.95v-18.496c.348.206.695.48 1.043.754l.104.102zm0 25.311v.445a2.97 2.97 0 00-1.147-.24v-.343h.07c.382.001.73.07 1.077.138zm0 5.96v.445c-.348.102-.73.136-1.147.136v-.342c.417 0 .8-.068 1.147-.239zm-1.147-48.67v-.136c.035 0 .07 0 .139-.034l.034.034c0 .034 0 .068-.034.068h-.07l-.069.069zm-6.638 42.573l.173 2.192h-.173c-.244-.651-.591-1.13-1.043-1.404-.452-.309-1.008-.445-1.633-.445-.521 0-1.009.103-1.425.343-.452.205-.765.548-1.043 1.027-.244.445-.348 1.029-.348 1.748 0 .581.104 1.062.348 1.506.243.411.59.72 1.043.96.451.239 1.008.343 1.599.343a3.29 3.29 0 001.355-.275c.418-.171.834-.513 1.321-1.062l.174.103c-.383.582-.87.994-1.391 1.233-.556.274-1.181.41-1.912.41-1.32 0-2.328-.41-3.058-1.163-.556-.583-.834-1.268-.834-2.055 0-.651.174-1.234.556-1.781.348-.515.835-.926 1.46-1.234a5.132 5.132 0 012.05-.445c.59 0 1.147.138 1.704.343.173.069.278.103.348.103.138 0 .208-.034.278-.068a1.02 1.02 0 00.243-.377h.208v-.002zm6.638-42.709v.137c-1.286.822-2.12 3.219-4.136 4.384 1.043-.343 2.016-1.302 2.99-2.227.382-.376.764-.753 1.146-1.062v.103c-.382.309-.73.651-1.077.994-1.077 1.028-2.155 2.09-3.302 2.33-.035 0-.07 0-.07-.035 0-.034.035-.034.035-.034h.035c1.251-.891 2.468-3.63 4.136-4.419-.73.274-1.53.925-2.364 1.678-1.564 1.302-3.475 2.946-5.943 2.946-1.112.033-1.669-.514-1.809-1.028-.138-.582.21-1.233.835-1.54h.035c.416-.31.973-.48 1.703-.48 1.007.239 1.912.274 2.676.102-.451.24-.904.343-1.32.309-.417.034-.904-.034-1.53-.206-.59 0-1.077.103-1.493.343-.626.309-.939.89-.8 1.473.105.48.626.96 1.704.925 2.467 0 4.274-1.541 5.874-2.911.972-.823 1.84-1.576 2.675-1.782zm0 1.678c-1.216 1.164-2.016 2.5-1.46 2.843h.035c.278.172.696-.068 1.321-.72-.07.275-.07.48.104.651v-.856h-.035c-.625.719-1.077 1.028-1.355.856-.174-.274.521-1.266 1.39-2.26v-.514zm0 5.31v.205c-.348.513-.417 1.13-.174 1.678.07-.034.104-.034.174-.034v.103c-.035.034-.07.034-.104.034.034.034.07.103.104.136v.309c-.139-.102-.243-.274-.313-.41-1.773.204-2.329-.583-2.71-1.234.625.89 1.529 1.233 2.641 1.096-.244-.583-.104-1.302.382-1.884zm0 9.691v18.496h-3.059v-.241s.521.069 1.148-.65c.417-.479.451-1.508.451-1.508v-10.754s.174-2.02-1.216-3.082c-1.112-.822-2.503-.788-3.44-.514-.939.309-1.6 1.233-1.808 1.61-.73 1.13-.59 2.295-.59 2.295v10.446s0 1.029.45 1.507c.627.72 1.148.651 1.148.651v.24h-7.16v-.24s.52.069 1.146-.651c.452-.478.452-1.507.452-1.507v-12.432s-.07-.479-.66-.959c-.486-.411-1.182-.343-1.182-.343v-.309s1.078-.274 2.71-.993c1.565-.685 2.642-1.713 2.642-1.713h.452v2.843s.347-.686 1.181-1.439c.66-.548 1.739-1.335 3.615-1.507 1.426-.102 2.643.138 3.72.754zm0 26.03v.343h-.035c-.73 0-1.285.24-1.738.65-.52.514-.8 1.302-.8 2.295 0 1.062.28 1.849.835 2.432.417.411 1.008.617 1.703.617h.035V138h-.035c-1.078 0-2.017-.308-2.746-.925-.765-.65-1.147-1.438-1.147-2.432 0-1.027.451-1.849 1.32-2.466.732-.548 1.6-.822 2.608-.856zm-22.522-7.227v-3.22c1.25.48 2.467.206 3.615-.274 1.841-.822 2.919-3.459 2.919-3.459h.452s0 1.815-1.842 4.247c-1.46 1.919-3.475 2.535-5.144 2.706zm0-11.816v-1.472h3.51s.034-1.577-.73-3.049c-.764-1.438-1.876-1.748-2.572-1.748h-.21v-1.335c.14-.034.314-.034.487-.034 2.711.034 4.345 1.369 5.597 3.083 1.25 1.781 1.18 4.555 1.18 4.555h-7.262zm0-7.603v1.335c-.696.069-1.634.344-2.468 1.542-.904 1.301-1.078 3.254-1.078 3.254h3.546v1.473l-3.789.034s-.07 2.192.07 2.98c.173 1.096.242 2.808 1.841 4.35.625.616 1.252 1.027 1.877 1.232v3.22c-.278.035-.556.035-.8.035-1.424.033-4.553-.858-5.873-4.35-1.321-3.494-1.147-5.994-.417-8.94.765-2.911 3.546-5.959 7.09-6.165zm-15.154 5.926v11.028s0 .753-.486 1.301c-.417.445-1.182.582-1.182.582v.205H53.6v-.205s-.764-.137-1.147-.582c-.487-.513-.556-1.301-.556-1.301V99.434s.034-.65.52-1.198c.383-.445 1.148-.548 1.148-.548v-.24H45.57v.24s.73.136 1.147.548a2.07 2.07 0 01.556 1.198v9.248H36.326v-9.248s.035-.753.52-1.266c.418-.446 1.148-.583 1.148-.583v-.24H30v.24s.765.137 1.147.583c.487.513.556 1.266.556 1.266v22.194s0 .753-.487 1.267c-.451.514-1.18.616-1.18.616v.206h7.993v-.206s-.764-.171-1.182-.616c-.486-.514-.521-1.267-.521-1.267V110.6h10.948v.001z" fill="#D9D9D9"/></svg>