<svg width="200" height="200" fill="none" xmlns="http://www.w3.org/2000/svg"><path d="M92.56 111.947h5.76v-11.894c0-6.293-4-9.626-8.827-9.626-3.2 0-5.6 1.386-7.333 3.306h-.773c-1.307-1.706-3.574-3.306-6.96-3.306-3.067 0-5.494 1.36-6.774 2.906h-.773v-2.32h-5.36v20.907h5.707v-10.933c0-3.734 1.093-5.014 4.933-5.014s4.88 1.28 4.88 5.014v10.933h5.76v-10.933c0-3.734 1.067-5.014 4.88-5.014 3.84 0 4.88 1.28 4.88 5.014v10.96zm-53.947-2.987c-1.013-.747-1.493-1.84-1.493-3.52 0-2.107.64-4.667 1.707-5.787.746-.746 1.813-1.093 3.253-1.093 2.053 0 4.587.533 5.627 1.627.72.72 1.04 1.706 1.04 3.093 0 2-.56 4.8-1.814 5.973-.72.64-1.653.934-3.013.934-1.84-.027-4.16-.454-5.307-1.227zm9.04 4.4l-.24 1.92 5.36.667 2.534-20.72-5.36-.667-.24 2h-.64c-.8-1.413-2.934-3.333-6.987-3.333-5.627 0-9.787 4.16-10.533 9.84-.08.56-.107 1.12-.107 1.68 0 5.44 3.68 9.893 9.44 10.533.32.027.64.053.96.027 2.4 0 4.213-1.04 5.147-1.947h.666zm121.04-6.133c-4.293 0-5.706-1.414-5.706-5.707s1.413-5.76 5.706-5.76c4.294 0 5.707 1.467 5.707 5.76 0 4.293-1.413 5.707-5.707 5.707zm-27.52 0c-4.293 0-5.706-1.414-5.706-5.707s1.413-5.76 5.706-5.76c4.294 0 5.707 1.467 5.707 5.76 0 4.293-1.413 5.707-5.707 5.707zm-26.8 0c-4.293 0-5.706-1.414-5.706-5.707s1.413-5.76 5.706-5.76c4.294 0 5.707 1.467 5.707 5.76 0 4.293-1.413 5.707-5.707 5.707zM23.493 84L20 111.92l5.68.693 3.44-27.92L23.493 84zm151.147 25.947v2.026H180V91.067h-5.36v2.026h-.773c-.854-1.146-3.014-2.64-5.92-2.64-6.374 0-10.747 4.854-10.747 11.067s4.373 11.04 10.747 11.04c2.906 0 5.066-1.493 5.92-2.64l.773.027zm-60.267-19.494c-7.093 0-11.493 4.854-11.493 11.067s4.4 11.04 11.493 11.04c7.094 0 11.494-4.827 11.494-11.04 0-6.213-4.4-11.067-11.494-11.067zm32.827 19.494v2.026h5.36V84.24h-5.68v8.827h-.773c-.854-1.147-2.774-2.64-5.68-2.64-6.374 0-10.747 4.853-10.747 11.066 0 6.214 4.373 11.04 10.747 11.04 2.906 0 5.173-1.493 6-2.64 0 .054.773.054.773.054z" fill="#D9D9D9"/></svg>