<svg width="200" height="200" fill="none" xmlns="http://www.w3.org/2000/svg"><path d="M40.114 100.825c0 1.616.481 2.971 1.398 4.019.96 1.048 2.14 1.572 3.581 1.572 1.442 0 2.621-.524 3.54-1.572.96-1.048 1.44-2.403 1.44-4.019 0-1.615-.48-2.97-1.44-4.018-.919-1.048-2.098-1.572-3.54-1.572-1.44 0-2.62.524-3.58 1.572-.918 1.048-1.398 2.403-1.398 4.018zm13.191 8.08c-2.053 2.054-4.587 3.102-7.6 3.102-2.271 0-4.106-.611-5.503-1.834V120H34V90.125h6.114s3.277-.525 5.591-.525c3.013 0 5.547 1.049 7.6 3.101 2.053 2.053 3.101 4.761 3.101 8.124 0 3.32-1.048 6.028-3.1 8.08zM84.576 104.582c1.005-1.092 1.53-2.402 1.53-3.887 0-2.97-2.141-5.33-5.46-5.33-1.53 0-2.796.525-3.8 1.573-1.005 1.049-1.485 2.316-1.485 3.757 0 1.441.524 2.752 1.528 3.843 1.005 1.092 2.272 1.66 3.757 1.66 1.616 0 2.926-.524 3.93-1.616zm1.53-14.457h6.245v21.402h-6.246v-1.572c-1.66 1.353-3.625 2.052-5.94 2.052-3.1 0-5.765-1.048-7.95-3.188-2.183-2.14-3.275-4.805-3.275-7.994 0-3.188 1.092-5.852 3.276-7.992 2.184-2.14 4.848-3.232 7.95-3.232 2.576 0 5.94.524 5.94.524zM125.557 95.846v15.68h-6.202V90.125h13.124v5.721h-6.922z" fill="#D9D9D9"/><path d="M53.565 80.953v5.721h5.985v24.853h6.202V80.953H53.565zM138.819 79.543c2.313 0 4.085 1.772 4.085 4.085 0 2.215-1.871 4.036-4.085 4.036-2.215 0-4.036-1.821-4.036-4.036 0-2.313 1.821-4.085 4.036-4.085zM135.72 90.125h6.246v21.401h-6.246V90.125zM151.652 90.125l3.232 5.46 3.232-5.46h6.988l-6.726 10.395 7.206 11.006h-6.944l-3.756-6.07-3.713 6.07h-6.988l7.207-11.006-6.726-10.395h6.988zM105.793 120h-6.552l3.494-8.473-8.342-21.402h6.901l4.804 13.234 4.979-13.234h6.639L105.793 120z" fill="#D9D9D9"/></svg>