<svg width="200" height="200" fill="none" xmlns="http://www.w3.org/2000/svg"><path fill-rule="evenodd" clip-rule="evenodd" d="M78.048 78.014L57.73 98.331a2.496 2.496 0 000 3.53l17.873 17.873a2.496 2.496 0 003.53 0l20.317-20.317-21.403-21.403zm1.324-1.324l21.403 21.403 18.959-18.959a2.496 2.496 0 000-3.53L101.861 57.73a2.496 2.496 0 00-3.53 0l-18.96 18.96zm-6.182 26.936a4.992 4.992 0 10-7.06-7.06 4.992 4.992 0 007.06 7.06zm15.533-6.934a4.993 4.993 0 11-7.06 7.06 4.993 4.993 0 017.06-7.06zm15.029-15.903a4.992 4.992 0 10-7.06-7.06 4.992 4.992 0 007.06 7.06zM80.232 120.832l40.599-40.6a2.497 2.497 0 013.531 0l17.872 17.873a2.496 2.496 0 010 3.53l-40.599 40.6a2.496 2.496 0 01-3.53 0l-17.873-17.873a2.496 2.496 0 010-3.53zm2.423 1.545l7.722 7.723 2.648-2.648c2.648-3.971-3.971-10.591-7.723-7.722l-2.647 2.647zm3.75-.22l3.972 3.971c1.324-1.765-2.206-5.295-3.971-3.971zm6.4-5.737c3.089-3.089 8.715 2.537 5.626 5.626-3.089 3.089-8.715-2.537-5.626-5.626zm1.434 1.434c.772-.772 3.53 1.986 2.758 2.758-.772.772-3.53-1.986-2.758-2.758zm3.861-6.068l-1.986 1.986 5.296 5.296 1.875-1.876-3.31-3.31a.866.866 0 01-.087-.411.48.48 0 01.132-.316.48.48 0 01.316-.133.875.875 0 01.412.088l3.31 3.31 1.986-1.986-3.31-3.31a.872.872 0 01-.088-.412.478.478 0 01.132-.315.48.48 0 01.316-.133.875.875 0 01.412.088l3.31 3.31 1.875-1.876-4.633-4.633a2.185 2.185 0 00-2.648 2.647 2.183 2.183 0 00-2.633 1.536c-.101.363-.106.746-.015 1.112l-.662-.662zm13.46-2.868l-5.296-5.296-1.986 1.986 5.296 5.296 1.986-1.986zm-9.851-6.245c0-.43.17-.842.473-1.147l.005-.004a1.622 1.622 0 11-.478 1.151zm7.313-1.809l-1.875 1.876 5.295 5.295 1.876-1.875-3.31-3.31a.887.887 0 01-.088-.412.48.48 0 01.133-.316.478.478 0 01.316-.132.857.857 0 01.411.088l3.31 3.309 1.876-1.875-3.972-3.972a1.965 1.965 0 00-3.089 2.207l-.883-.883zm5.406-6.068c3.089-3.089 8.716 2.538 5.627 5.627-3.089 3.089-8.716-2.538-5.627-5.627zm1.434 1.434c.773-.772 3.531 1.986 2.759 2.758-.773.773-3.531-1.985-2.759-2.758zm2.097-9.157l-1.986 1.986 2.648 4.193 1.434-1.435-2.096-4.744zm6.399 2.428c-1.545 1.103-3.09 0-.221-1.104l-.662-1.986c-5.296 1.766-3.089 6.62-.441 5.737 2.206-1.324 3.53 0 .772.993l.441 1.765c.883-.147 1.729-.551 2.538-1.213 2.427-2.427-.221-5.075-2.427-4.192zm-24.272 50.308l2.207-2.207-2.648-2.648a3.742 3.742 0 000-5.295 3.746 3.746 0 00-5.296 0l-2.206 2.206 7.943 7.944zm-3.07-9.114c-.413.02-.817.203-1.122.508l2.096 2.096c.306-.305.489-.709.508-1.122a1.415 1.415 0 00-.403-1.078 1.416 1.416 0 00-1.08-.404zm10.682 1.501l-5.516-5.516-1.986 1.986 5.517 5.516 1.985-1.986zm-9.762-6.156c0-.43.17-.843.473-1.147l.004-.005a1.622 1.622 0 11-.477 1.152zm9.211-4.325l-4.193 4.193 1.545 1.544 1.545-1.544 2.206 5.737 4.303-4.303-1.655-1.655-1.655 1.655-2.096-5.627zm4.964-4.964l-4.192 4.192 1.434 1.655 1.655-1.655 2.096 5.847 4.413-4.413-1.655-1.655-1.654 1.655-2.097-5.626zm7.785 2.973c.238-.444.294-1.018.159-1.649l.882.882 2.097-2.096-5.517-5.516-2.096 2.096.662.662c-.631-.135-1.205-.079-1.649.159-.444.239-.739.65-.847 1.183-.109.532-.026 1.162.238 1.811a5.655 5.655 0 001.243 1.833 5.657 5.657 0 001.834 1.244c.648.264 1.278.346 1.811.238.532-.108.944-.403 1.183-.847zm-.995-2.361c.019-.157-.04-.371-.17-.612l-1.324-1.324c-.241-.13-.455-.189-.613-.17-.157.02-.25.117-.264.278-.015.161.049.378.183.62s.33.497.562.728c.231.232.486.428.728.562.242.134.459.198.62.183.161-.015.258-.107.278-.265z" fill="#D9D9D9"/></svg>