<svg width="200" height="200" fill="none" xmlns="http://www.w3.org/2000/svg"><path d="M163.456 82h-4.108v27.893h4.108V81.999z" fill="#D9D9D9"/><path fill-rule="evenodd" clip-rule="evenodd" d="M154.918 109.912h-4.108V90.145h4.108v19.767zm-2.054-28.587a2.775 2.775 0 012.774 2.774 2.775 2.775 0 01-2.774 2.774 2.775 2.775 0 01-2.774-2.774 2.775 2.775 0 012.774-2.774zM146.356 109.901h-4.037v-2.163c-1.447 1.64-3.997 2.671-6.395 2.671-5.734 0-10.39-4.657-10.39-10.392 0-5.734 4.656-10.39 10.39-10.39 2.398 0 4.813.904 6.395 2.5v-1.993h4.037v19.767zm-10.3-16.121c3.535 0 6.317 2.53 6.317 6.237 0 3.707-2.782 6.26-6.317 6.26-3.536 0-6.224-2.723-6.224-6.26 0-3.536 2.688-6.237 6.224-6.237zM95.389 109.901H91.35V90.134h4.039v1.381c.896-.844 2.577-1.885 4.909-1.889 2.867 0 5.003 1.206 6.466 3.146 1.6-1.921 4.24-3.146 6.929-3.146 5.046 0 8.486 3.408 8.486 8.718V109.9h-4.039V98.344a4.684 4.684 0 00-4.678-4.679c-2.58 0-4.678 2.1-4.678 4.678v11.558h-4.039V98.344a4.684 4.684 0 00-4.678-4.679c-2.58 0-4.678 2.1-4.678 4.678v11.558z" fill="#D9D9D9"/><path d="M64.191 99.672a6.526 6.526 0 01-6.519 6.519 6.526 6.526 0 01-6.518-6.519 6.526 6.526 0 016.518-6.518 6.526 6.526 0 016.52 6.519zM57.672 78C45.722 78 36 87.722 36 99.672c0 11.951 9.722 21.673 21.672 21.673 4.378 0 8.6-1.303 12.208-3.769l.062-.044-2.92-3.393-.049.031a17.147 17.147 0 01-9.3 2.732c-9.5 0-17.23-7.729-17.23-17.23 0-9.5 7.73-17.23 17.23-17.23s17.23 7.73 17.23 17.23c0 1.231-.139 2.477-.407 3.703-.544 2.237-2.111 2.922-3.286 2.832-1.183-.096-2.567-.938-2.576-3v-3.535c0-6.045-4.916-10.961-10.962-10.961-6.045 0-10.961 4.916-10.961 10.962 0 6.045 4.916 10.961 10.962 10.961a10.87 10.87 0 007.766-3.235 7.046 7.046 0 005.415 3.237 7.329 7.329 0 004.982-1.46c1.298-.988 2.269-2.414 2.805-4.127.085-.277.243-.91.243-.915l.004-.023c.316-1.375.457-2.745.457-4.439C79.345 87.722 69.623 78 57.673 78z" fill="#D9D9D9"/></svg>