<svg width="200" height="200" fill="none" xmlns="http://www.w3.org/2000/svg"><path d="M59.768 124.516c1.663-.062 2.981-.111 5.186-.108h.03c1.645.003 3.32.083 4.947.279-.13.832-.359 1.673-.663 2.504a15.606 15.606 0 01-1.129 2.517 64.352 64.352 0 01-5.121.195c-.725 0-1.653-.016-2.903-.039l-.86 2.429H57l2.768-7.779v.002zm6.663 3.835a9.313 9.313 0 00.832-2.318c-.684-.066-2-.101-2.83-.101-1.093 0-1.974.03-2.931.069h-.007l-.843 2.375.012-.011c.92.066 1.774.077 2.864.08 1.071.003 1.95-.028 2.9-.092l.003-.002zm5.74-3.835h2.317l-.522 1.442c-.529 1.5-1.095 3.184-1.558 4.684.813.12 1.718.144 2.574.144.855.003 1.775-.015 2.67-.133.162-.313.304-.625.423-.927h2.282a28.2 28.2 0 01-1.111 2.463c-1.672.179-3.268.23-4.849.227-1.61-.003-3.125-.062-4.68-.246a98.764 98.764 0 011.976-6.217l.475-1.436.003-.001zm15.188.039c.103-.019 1.04-.122 2.455-.122h.338c.92.003 1.749.026 2.697.115l.9 7.743h-2.271l-.208-1.635-6.67-.012-1.357 1.647h-2.27l5.612-6.806.778-.928-.004-.002zm1.048 1.55l-2.516 3 5.178.009-.368-3.001a16.241 16.241 0 00-1.13-.046c-.358 0-.87.02-1.165.041l.001-.003zm9.782-1.605l5.416.013c1.634.003 3.697.03 5.287.236-.141.767-.289 1.488-.56 2.255-.322.898-.684 1.826-1.231 2.777-.816.04-1.736.114-2.626.145l2.148 2.369h-2.885l-3.294-3.586.077-.226h1.196a75.926 75.926 0 003.687-.058c.2-.42.379-.829.527-1.25.142-.41.245-.755.337-1.156-1.043-.046-2.016-.046-3.194-.046l-3.115-.007-2.255 6.327h-2.262l2.747-7.794v.001zm13.512.016h2.256l-2.771 7.779h-2.271l2.786-7.779zm5.079.033h2.286l-.486 1.381c-.553 1.535-1.082 3.228-1.544 4.741.997.128 2.064.151 3.102.149 1.028 0 2.122-.024 3.189-.153a104.682 104.682 0 001.826-4.741l.483-1.377h2.314l-.485 1.374c-.714 2-1.673 4.138-2.452 6.126-1.88.292-3.689.391-5.45.393-1.774 0-3.51-.095-5.201-.384a79.035 79.035 0 011.911-6.126l.504-1.381.003-.002zm13.631.029c1.48-.076 3.05-.141 5.462-.165.087 0 .199-.011.284-.011h.575c2.108 0 4.193.083 6.237.307-.737 2.4-1.657 5.186-2.504 7.586h-2.271c.669-1.914 1.458-4.223 2.03-6.138a70.708 70.708 0 00-2.921-.126l-2.21 6.26h-2.283l2.21-6.26a73.178 73.178 0 00-3.023.134c-.778 1.91-1.622 4.213-2.291 6.125h-2.27a143.972 143.972 0 012.301-6.1c.163-.404.675-1.612.675-1.612h-.001zm5.322-44.435c.282.442.276.737.236.933h-.006a1.412 1.412 0 01-.037.138c-.199.553-.859 1.16-1.845 1.685-2.885 1.527-6.682 3.053-11.319 4.548v-.042c-.023-1.473-1.442-2.58-4.733-3.68-21.511-7.195-39.187-.83-45.496 2.922 1.97-5.674 4.6-11.855 6.242-12.784 8.718-4.93 20.615-6.884 32.638-5.353 11.308 1.44 20.627 5.898 24.319 11.633h.001zm-.948 5.007c-1.629 5.373-3.785 11.63-4.997 12.974-3.99 4.428-42.117 13.146-63.268 2.946 12.094-1.55 51.216-7.1 68.265-15.92" fill="#D9D9D9"/><path d="M97.7 82.761l-4.177 11.711a472.531 472.531 0 01-13.695 2.343c-3.63-1.534-8.46-4.454-8.588-6.19l.015-.05c.62-1.04 5.466-4.316 13.83-6.301a56.609 56.609 0 0112.617-1.513h-.001zm-8.736 25.301l-2.705 7.84H74.951l3.123-8.91c3.664.645 7.37.967 10.89 1.074" fill="#D9D9D9"/></svg>