<svg width="200" height="200" fill="none" xmlns="http://www.w3.org/2000/svg"><path d="M123.711 95.646h-4.823l1.897 2.72h2.445l-2.057 11.707h4.284l2.059-11.708h5.343l-8.436-6.783-.712 4.064zM39.992 89h-19.46L20 92.067h7.557l-3.166 18.006h4.284l3.165-18.006h7.62L39.993 89z" fill="#D9D9D9"/><path d="M43.16 95.322c-5.444 0-8.93 3.425-9.621 7.408-.767 4.42 1.95 7.656 7.444 7.656 2.454 0 4.752-.462 6.617-1.498l.58-3.296c-1.822 1.303-4.141 2.034-6.109 2.034-2.74 0-4.918-1.141-4.574-3.756h11.318c.136-.312.301-.855.42-1.535.548-3.158-.574-7.013-6.074-7.013zm2.221 6.003h-7.45c.447-1.476 1.894-3.514 4.53-3.514 2.866 0 3.17 2.178 2.92 3.514zM62.078 95.322c-2.675 0-4.677 1.108-5.621 2.227h-.099l-3.77-2.227c-.141 1.25-.327 2.948-.615 4.615l-1.76 10.135h4.282l1.489-8.488c.073-.417.215-.859.398-1.158.641-1.115 1.982-2.14 3.684-2.14 2.338 0 2.973 1.576 2.615 3.647l-1.431 8.139h4.283l1.508-8.568c.793-4.563-2.012-6.182-4.963-6.182zM113.461 95.322c-2.673 0-4.674 1.108-5.619 2.227h-.099l-3.771-2.227c-.14 1.25-.326 2.948-.616 4.615l-1.759 10.135h4.281l1.491-8.488c.071-.417.212-.859.396-1.158.64-1.115 1.983-2.14 3.684-2.14 2.34 0 2.975 1.576 2.617 3.647l-1.431 8.139h4.283l1.507-8.568c.792-4.563-2.013-6.182-4.964-6.182zM94.543 95.322c-5.444 0-8.928 3.425-9.621 7.408-.767 4.42 1.95 7.656 7.444 7.656 2.455 0 4.752-.462 6.618-1.498l.58-3.296c-1.823 1.303-4.14 2.034-6.11 2.034-2.738 0-4.913-1.141-4.573-3.756h11.32c.135-.312.3-.855.419-1.535.546-3.158-.576-7.013-6.077-7.013zm2.22 6.003h-7.448c.447-1.476 1.895-3.514 4.527-3.514 2.868 0 3.173 2.178 2.922 3.514zM68.838 102.665c-.776 4.477 2.359 7.718 7.665 7.718 2.11 0 4.63-.606 5.584-.96l.694-3.856c-1.488 1.599-3.507 1.934-4.937 1.934-2.915 0-5.124-1.699-4.608-4.658.445-2.643 2.948-4.676 6.213-4.676 1.331 0 3.134.445 4.271 1.943l.665-3.92a12.119 12.119 0 00-4.579-.86c-5.954 0-10.217 3.017-10.968 7.335zM144.555 90.938c-1.169 6.415-2.218 12.76-3.412 19.153h-2.409c.476-2.411 1.026-4.962 1.431-7.323h-1.718a696.46 696.46 0 01-1.597 7.323h-2.41c2.028-6.464 3.029-13.12 4.175-20.466h4.509c1.167 0 1.644.19 1.431 1.313zm-3.316 6.129h-1.646c-.237 1.24-.502 2.528-.763 3.816h1.715l.694-3.816zm.502-5.462h-1.196c-.189 1.144-.38 2.337-.618 3.578h1.622l.597-3.126c.07-.356-.073-.453-.405-.453zm9.516 15.67h-8.085l-.335-1.836h8.826v.023l-.406 1.813zm2.67-7.107l-.549 2.481h1.17c.787 0 1.361.165 1.217 1.144-.263 1.765-.739 4.223-1.121 6.298h-6.345l-.524-1.885h4.675c.214-1.001.476-2.218.618-3.22.049-.334-.095-.452-.429-.452h-7.917l.715-3.842c-.572.264-1.432.55-2.265.717l.498-2.315c1.479-.357 2.983-1.074 3.914-2.098h-3.532l.406-1.813h4.364a3.95 3.95 0 00.526-1.073h-4.722l.357-1.885h1.694l-.62-2.791h2.408l.573 2.791h.836c.262-.93.453-2.17.476-3.196h2.457c-.047 1.026-.191 2.24-.429 3.196h.977c.383-.86.763-1.885 1.074-2.791h2.456a51.17 51.17 0 01-1.169 2.791h1.718l-.453 1.885h-5.129a6.81 6.81 0 01-.451 1.073h6.295l-.428 1.813h-3.674c.788 1.17 2.672 2.05 4.126 2.36l-.809 2.053c-1.002-.215-2.101-.693-2.984-1.241zm-2.479.335h-5.225l1.575.715-.286 1.431h3.458l.478-2.146zm.881-1.791c-.405-.451-.833-1.19-1.097-1.716h-.882a10.17 10.17 0 01-1.813 1.716h3.792zM159.542 95.16h5.01a263.933 263.933 0 01-1.717 10.113c.954-.717 1.956-1.48 2.861-2.267l-.523 3.077c-1.694 1.432-4.033 3.101-6.178 4.317.93-4.317 1.787-8.896 2.409-13.12h-2.242l.38-2.12zm5.892-1.123c-.356-1.67-.81-3.409-1.192-5.033h-2.695a200.68 200.68 0 011.049 5.033h2.838zm12.237-4.388h-11.137l.475 2.122h8.325c.549 0 .81.072.692.692-.31 1.718-.644 3.459-.978 5.152h-3.625l.62-3.625-2.528-1.48-.933 5.105h-2.695l-.357 2.123h2.649c-.551 3.435-1.217 6.941-1.91 10.378h2.887c.668-3.46 1.335-6.919 1.909-10.378h3.6a421.49 421.49 0 01-1.93 10.378h5.103l.882-2.148h-2.719c1.074-5.463 2.194-11.163 3.15-16.673.213-1.193-.026-1.645-1.48-1.645z" fill="#D9D9D9"/></svg>