<svg width="200" height="200" fill="none" xmlns="http://www.w3.org/2000/svg"><path d="M100.021 66.005c4.534-.1 9.109 1.214 12.839 3.808 3.987 2.72 7.017 6.813 8.443 11.425 1.448 4.621 1.297 9.728-.438 14.25-1.929 5.101-5.864 9.411-10.775 11.779-4.168 2.067-9.015 2.701-13.58 1.83-4.996-.921-9.623-3.69-12.81-7.641-3.144-3.834-4.926-8.782-4.862-13.745-.047-4.497 1.416-8.98 4.034-12.629 3.88-5.492 10.424-8.96 17.149-9.077zm-5.599 5.31c-3.52 1.312-6.603 3.78-8.628 6.946-2.307 3.517-3.215 7.875-2.658 12.035 1.579-3.433 3.573-6.73 6.299-9.38 2.522-2.613 5.67-4.543 8.99-5.975-.639-.544-1.275-1.089-1.899-1.646 3.564-.645 7.334-.359 10.703 1.008-2.198 2.334-4.456 4.643-6.238 7.322-.25-1.15-.48-2.305-.732-3.454-2.74 1.842-4.681 4.691-5.792 7.77-1.547 4.317-1.822 9.06-.943 13.552 1.633-.252 3.257-.643 4.78-1.296 3.581-1.478 6.408-4.37 8.277-7.716-1.208.033-2.414.146-3.622.198 2.386-2.576 4.535-5.4 6.146-8.53 1.851 3.013 3.354 6.223 4.656 9.508a86.15 86.15 0 00-2.923-.86c.123 4.068-.216 8.164-1.335 12.09 4.545-2.651 7.741-7.453 8.456-12.663a17.486 17.486 0 00-1.903-10.703c-2.156-4.101-6.018-7.25-10.455-8.57a17.58 17.58 0 00-11.179.364zm-26.118 50.359c.78-1.384 2.344-2.186 3.904-2.245 1.777-.084 3.557-.015 5.337-.037 0 1.01 0 2.02-.003 3.032-1.528.003-3.057-.005-4.587-.002-.698-.008-1.468.175-1.898.771-.47.609-.377 1.423-.386 2.146.03 1.147-.04 2.293.027 3.439.049.769.53 1.562 1.326 1.737.902.166 1.827.068 2.738.027-.003-.868-.003-1.738 0-2.606-.58-.005-1.159-.007-1.738-.009.003-.884.003-1.77.003-2.654 1.589-.003 3.175-.003 4.762-.003-.012 2.478.037 4.956-.025 7.431-1.619 1.183-3.686.807-5.554.864-1.735.037-3.416-1.03-4.13-2.612-.694-1.44-.461-3.074-.499-4.618-.005-1.57-.101-3.256.723-4.661zm56.596-.3c.816-1.228 2.282-1.883 3.729-1.948 1.78-.081 3.564-.012 5.349-.034 0 1.01 0 2.019-.002 3.032-1.612.009-3.223-.02-4.834.007-.779.007-1.654.381-1.903 1.181-.354 1.198-.127 2.465-.196 3.698-.012 1.067-.074 2.462 1.01 3.061.988.411 2.104.191 3.146.159-.008-.866-.005-1.73-.003-2.594-.579-.005-1.158-.007-1.738-.009.003-.884.003-1.77.003-2.654 1.589-.003 3.176-.003 4.762 0 .01 2.448-.01 4.896.013 7.346-1.584 1.283-3.691.889-5.567.948-1.748.053-3.458-1.007-4.173-2.601-.723-1.443-.418-3.092-.48-4.639-.02-1.676-.142-3.515.884-4.953zM27 119.575c1.146.005 2.292.002 3.44.002.706 2.928 1.349 5.872 2.08 8.794.415-2.938.944-5.859 1.397-8.792 1.3-.005 2.597-.003 3.896 0 .473 2.928.951 5.859 1.426 8.787a2707.82 2707.82 0 012.055-8.79c1.146 0 2.294.003 3.44-.002-1.272 4.641-2.567 9.277-3.827 13.923-1.175.003-2.349.005-3.524-.003-.498-2.908-1.04-5.811-1.51-8.725-.498 2.914-1.013 5.822-1.53 8.731h-3.515c-1.261-4.646-2.556-9.282-3.828-13.925zM43.599 133.5c1.27-4.644 2.557-9.282 3.83-13.923h3.536c1.27 4.644 2.559 9.279 3.826 13.92-1.069.003-2.139 0-3.21.006-.213-.951-.414-1.901-.637-2.849-1.15-.003-2.301 0-3.455-.003-.208.948-.423 1.894-.629 2.842-1.085.012-2.175.007-3.261.007zm4.51-5.321c.755-.003 1.51 0 2.264.006-.368-1.675-.758-3.344-1.13-5.014-.38 1.669-.76 3.337-1.134 5.008zm8.272-8.664c2.23.007 4.458-.017 6.688.01 1.322-.025 2.698.933 2.775 2.322a167.86 167.86 0 01-.002 3.728c-.03.985-.808 1.738-1.656 2.116.812 1.916 1.628 3.83 2.443 5.748h-3.545c-.634-1.733-1.232-3.478-1.881-5.203-.619.002-1.235.005-1.851.005-.003 1.733.005 3.468-.005 5.2-.988-.004-1.976-.004-2.963 0-.008-4.644-.003-9.285-.003-13.926zm2.97 2.785c0 1.074-.002 2.146.003 3.22.896-.022 1.791.04 2.685-.024.57-.045.902-.622.84-1.154-.02-.654.203-1.648-.562-1.958-.973-.191-1.978-.037-2.966-.084zm23.101-2.72c1.176-.006 2.352.002 3.53-.008 1.287 4.639 2.57 9.28 3.832 13.929h-3.21c-.212-.954-.412-1.907-.642-2.854-1.146.012-2.295.007-3.443.005-.203.951-.426 1.896-.626 2.849H78.63c1.26-4.645 2.563-9.278 3.822-13.921zm.684 8.601c.754-.002 1.512-.002 2.267-.002-.372-1.674-.763-3.342-1.13-5.015-.388 1.67-.759 3.344-1.137 5.017zm8.024-8.604c1.267.003 2.534-.007 3.802.01.873 3.386 1.787 6.761 2.673 10.145.951-3.375 1.822-6.771 2.75-10.153 1.255-.002 2.51-.002 3.767-.002V133.5h-2.846c.022-2.646-.05-5.29-.099-7.934-.73 2.629-1.364 5.287-2.035 7.934-1.027-.003-2.054.012-3.079-.018-.653-2.712-1.346-5.416-2.022-8.121-.013 2.713-.003 5.423-.005 8.139h-2.909c0-4.641-.002-9.282.003-13.923zm15.408.003c1.007-.003 2.017-.003 3.029-.003V133.5h-3.032c.001-4.641.001-9.282.003-13.92zm5.445 0c.988-.003 1.975-.006 2.963 0 1.468 2.698 2.926 5.398 4.406 8.088-.017-2.697-.005-5.393-.005-8.088a468.19 468.19 0 012.903 0c.003 4.638.003 9.279.003 13.918-.99.002-1.978.002-2.963 0-1.478-2.736-2.931-5.483-4.411-8.216.02 2.74.005 5.478.01 8.218h-2.908c0-4.641 0-9.282.002-13.92zm29.515-.003c.985 0 1.973.003 2.958-.002 1.505 2.715 2.958 5.457 4.463 8.173.012-2.725 0-5.448.005-8.171.948 0 1.896 0 2.844.003.002 4.638.002 9.279.002 13.92-.995-.003-1.99.01-2.982-.015-1.436-2.76-2.941-5.482-4.389-8.235.017 2.747 0 5.497.01 8.247-.97.005-1.941.003-2.911.003 0-4.641-.002-9.282 0-13.923zm12.502.003c2.968-.003 5.938-.003 8.908-.003-.002.906-.002 1.811.003 2.718-1.96.012-3.921 0-5.881.005-.003.866-.003 1.733 0 2.599h5.319c.003.906.003 1.814 0 2.719-1.772.003-3.544.003-5.317.003-.005 1.03-.005 2.062 0 3.094h5.874c.002.929.002 1.857 0 2.785h-8.909c.001-4.641-.002-9.282.003-13.92zm10.332 0c3.198-.006 6.393 0 9.592-.003v2.723h-3.216c-.005 3.713 0 7.425-.005 11.138h-3.027c-.002-3.71-.005-7.421 0-11.132-1.114-.009-2.23-.009-3.344-.006v-2.72zm-28.032 11.074c.968 0 1.936 0 2.904-.003.005.948.005 1.896.007 2.844-.971.008-1.941.006-2.911.006 0-.951-.002-1.899 0-2.847z" fill="#D9D9D9"/></svg>