<svg width="200" height="200" fill="none" xmlns="http://www.w3.org/2000/svg"><path d="M91.62 92.903c-3.205 0-6.546 2.339-6.546 2.339v-1.503c0-.33-.131-.462-.46-.462h-4.09c-.33 0-.528.198-.528.462v32.054c0 .331.132.529.462.529h4.155c.263 0 .461-.198.461-.529V98.355s1.929-1.222 4.272-1.222c2.23 0 3.99 1.107 3.99 3.377v25.282c0 .331.198.529.528.529h4.09c.329 0 .46-.265.46-.529v-26.72c0-4.023-2.474-6.169-6.795-6.169zm31.811-16.079h-4.09c-.33 0-.527.198-.527.462v16.17c-1.57-.601-3-.92-4.155-.92-6.642 0-11.201 6.35-11.201 18.559 0 10.46 4.435 16.069 10.223 16.069 2.44 0 4.454-1.398 5.929-2.709l.893 1.514c.15.262.274.351.576.351l2.353.003c.263 0 .461-.198.461-.529V77.286c0-.33-.133-.462-.462-.462zm-14.565 33.191c0-6.728 1.969-13.39 5.99-13.39 1.362 0 2.669.449 3.958 1.473v23.701c-1.007.548-2.275 1.053-3.644 1.053-4.372 0-6.304-5.186-6.304-12.837zm30.23-17.412c-6.811 0-10.172 8.909-10.172 18.604 0 10.149 4.794 15.836 10.958 15.836 2.71 0 5.407-1.066 7.176-2.049.27-.151.319-.363.254-.625l-.517-2.144c-.064-.263-.196-.393-.523-.393-.144 0-2.379.654-4.553.654-5.044 0-7.357-4.485-7.357-10.44v-1.447s2.507.346 4.013.346h9.517v-2.75c0-10.154-3.556-15.592-8.796-15.592zm-.328 14.215c-1.506 0-4.247.373-4.247.373s.036-1.093.168-2.141c.59-5.568 1.918-8.385 4.21-8.385 1.994 0 3.36 2.882 3.688 7.926.065 1.048.065 2.227.065 2.227h-3.884zm-66.54-10.051c-1.512-2.98-4.205-4.282-7.29-4.282-1.983 0-5.076.757-7.142 1.686-.404.182-.66.342-.66.66 0 .189.094.406.198.593l1.392 2.98c.143.337.373.415.563.415.206 0 .374-.098.559-.216 2.015-1.288 3.491-1.996 4.66-1.996 1.546 0 2.596 1.025 3.243 2.568.603 1.437.836 3.423.836 5.717l.002.674c-1.27-.794-3.47-1.232-4.569-1.232-5.908 0-9.094 5.614-9.094 11.617 0 6.469 3.724 11.213 8.199 11.213 2.492 0 4.748-1.462 6.26-3.307 0 0 .804 1.918.91 2.148.105.23.217.315.52.315l2.391.002c.263 0 .461-.198.461-.529v-18.594c0-4.57-.231-8.055-1.438-10.432zm-3.64 24.36c-1.172 1.132-2.575 1.725-3.837 1.725-1.263 0-2.238-.583-3.021-1.664-.952-1.314-1.397-3.338-1.397-5.58 0-3.547 1.31-7.186 4.085-7.186 1.373 0 2.882.448 4.17 1.472v11.233zM169.49 93.273h-3.645c-.407 0-.615.213-.72.49-.804 2.113-1.605 4.228-2.403 6.344a409.52 409.52 0 00-1.664 4.639l-.141-.001c-.005-.013-.893-2.502-1.374-3.748-.389-1.01-2.42-6.36-2.677-7.019-.137-.354-.291-.705-.813-.705h-3.99c-.439 0-.687.481-.546.78.143.3 6.501 14.782 6.501 14.782s-6.828 16.217-7.028 16.581c-.2.364.051.903.537.903h3.497c.595 0 .83-.312 1.008-.814.503-1.408 1.251-3.366 2.311-6.393.702-2.005 1.813-5.525 1.813-5.525h.122s1.216 3.587 1.669 4.76c1.142 2.966 2.604 6.841 2.759 7.25.161.427.387.723.796.723h3.966c.393 0 .574-.448.389-.838-.441-.93-4.208-10.082-6.823-16.098 0 0 6.787-14.979 6.92-15.35.135-.37.096-.761-.464-.761zM59.056 72.001h-4.598c-.408 0-.662.2-.72.49-.059.291-6.895 21.135-7.392 22.871-.352 1.23-1.5 5.571-1.777 6.613l-2.377-6.491c-.577-1.787-6.115-17.256-6.277-17.874-.09-.34-.246-.762-.841-.762h-4.489c-.439 0-.686.482-.545.78.113.239 8.22 21.808 11.496 30.048v18.117c0 .331.132.529.462.529h4.251c.264 0 .462-.198.462-.529v-17.974c2.73-7.626 12.703-34.752 12.811-35.056.132-.371.093-.762-.466-.762z" fill="#D9D9D9"/></svg>